<svg xmlns="http://www.w3.org/2000/svg" xmlns:xlink="http://www.w3.org/1999/xlink" xmlns:lucid="lucid" width="1440" height="2908"><g transform="translate(-60 -262)" lucid:page-tab-id="0_0"><path d="M0 0h1595.08v3504H0z" fill="#fff"/><path d="M328 300c28.72 0 52 22.4 52 50s-23.28 50-52 50H172c-28.72 0-52-22.4-52-50s23.28-50 52-50z" stroke="#000" stroke-opacity="0" fill="#ff741d"/><use xlink:href="#a" transform="matrix(1,0,0,1,125,305) translate(18.174999999999997 48.6)"/><use xlink:href="#b" transform="matrix(1,0,0,1,125,305) translate(56.125 48.6)"/><use xlink:href="#c" transform="matrix(1,0,0,1,125,305) translate(167.925 48.6)"/><path d="M381 350h143.86" stroke="#333" stroke-width="2" fill="none"/><path d="M381.03 351h-1.08l.05-1-.02-1h1.05z" fill="#333"/><path d="M540.12 350l-14.26 4.64v-9.28z" stroke="#333" stroke-width="2" fill="#333"/><path d="M613.6 294.8c3.53-2.65 9.27-2.65 12.8 0l67.2 50.4c3.53 2.65 3.53 6.95 0 9.6l-67.2 50.4c-3.53 2.65-9.27 2.65-12.8 0l-67.2-50.4c-3.53-2.65-3.53-6.95 0-9.6z" stroke="#834187" fill="#834187"/><use xlink:href="#d" transform="matrix(1,0,0,1,545,295) translate(46.025 58.6)"/><path d="M838.76 562.66c1.8-4.04 6.82-7.3 11.24-7.3h104c8.84 0 16 32.37 16 72.3 0 39.96-7.16 72.34-16 72.34H850c-4.42 0-9.45-3.28-11.24-7.32l-25.52-57.7c-1.8-4.03-1.8-10.58 0-14.62z" stroke="#fcc438" fill="#fcc438"/><use xlink:href="#e" transform="matrix(1,0,0,1,815,560.3484375) translate(53.55 49.5)"/><use xlink:href="#f" transform="matrix(1,0,0,1,815,560.3484375) translate(44.05 71.10000000000001)"/><use xlink:href="#g" transform="matrix(1,0,0,1,815,560.3484375) translate(44.025 92.70000000000002)"/><path d="M648.76 562.66c1.8-4.04 6.82-7.3 11.24-7.3h104c8.84 0 16 32.37 16 72.3 0 39.96-7.16 72.34-16 72.34H660c-4.42 0-9.45-3.28-11.24-7.32l-25.52-57.7c-1.8-4.03-1.8-10.58 0-14.62z" stroke="#fcc438" fill="#fcc438"/><use xlink:href="#h" transform="matrix(1,0,0,1,625,560.3484375) translate(53.55 60.3)"/><use xlink:href="#i" transform="matrix(1,0,0,1,625,560.3484375) translate(44.05 81.9)"/><path d="M488 1040c28.72 0 52 22.4 52 50s-23.28 50-52 50H332c-28.72 0-52-22.4-52-50s23.28-50 52-50z" stroke="#000" stroke-opacity="0" fill="#ff741d"/><use xlink:href="#j" transform="matrix(1,0,0,1,285,1045) translate(17.64999999999999 48.6)"/><use xlink:href="#b" transform="matrix(1,0,0,1,285,1045) translate(56.64999999999999 48.6)"/><use xlink:href="#c" transform="matrix(1,0,0,1,285,1045) translate(168.45 48.6)"/><path d="M410 1140.5v12.62" stroke="#333" fill="none"/><path d="M410.5 1140.5h-1v-.5h1z" fill="#333"/><path d="M410 1167.88l-4.64-14.26h9.28z" stroke="#333" fill="#333"/><path d="M343.94 1177.73c1.14-4.27 5.64-7.73 10.06-7.73h128c4.42 0 7.08 3.46 5.94 7.73l-11.88 44.54c-1.14 4.27-5.64 7.73-10.06 7.73H338c-4.42 0-7.08-3.46-5.94-7.73z" stroke="#de5f85" fill="#de5f85"/><use xlink:href="#k" transform="matrix(1,0,0,1,335,1175) translate(12.074999999999996 28.6)"/><use xlink:href="#l" transform="matrix(1,0,0,1,335,1175) translate(55.025 28.6)"/><use xlink:href="#m" transform="matrix(1,0,0,1,335,1175) translate(80.025 28.6)"/><path d="M1221 536.35h-2v-30.87h2zm-9.63-186.92l3.13 1.3 2.7 2.07 2.07 2.7 1.3 3.13.43 3.3v121.95h-2v-121.8l-.38-2.93-1.1-2.64-1.75-2.27-2.28-1.76-2.65-1.1-2.92-.37h-510.3v-2h510.44z" fill="#333"/><path d="M697.67 351h-1.07l.08-1.95 1-.05zM1220 551.6l-4.64-14.25h9.28z" fill="#333"/><path d="M1220 554.85l-6-18.5h12zm-3.26-16.5l3.26 10.03 3.26-10.03z" fill="#333"/><use xlink:href="#n" transform="matrix(1,0,0,1,1188.025,483.87695247532525) translate(0.004999999999999005 14.4)"/><path d="M1081.82 560.43c3.4-2.8 9.76-5.08 14.18-5.08h300c24.3 0 44 32.38 44 72.32 0 39.95-19.7 72.33-44 72.33h-300c-4.42 0-10.77-2.27-14.18-5.08l-75.64-62.17c-3.4-2.8-3.4-7.35 0-10.16z" stroke="#fcc438" fill="#fcc438"/><use xlink:href="#o" transform="matrix(1,0,0,1,1005,560.3484375) translate(45.0799479166667 62.084895833333334)"/><use xlink:href="#p" transform="matrix(1,0,0,1,1005,560.3484375) translate(97.0299479166667 62.084895833333334)"/><use xlink:href="#q" transform="matrix(1,0,0,1,1005,560.3484375) translate(136.02994791666669 62.084895833333334)"/><use xlink:href="#r" transform="matrix(1,0,0,1,1005,560.3484375) translate(174.9299479166667 62.084895833333334)"/><use xlink:href="#s" transform="matrix(1,0,0,1,1005,560.3484375) translate(199.9299479166667 62.084895833333334)"/><use xlink:href="#t" transform="matrix(1,0,0,1,1005,560.3484375) translate(40.89166666666674 83.78802083333333)"/><use xlink:href="#u" transform="matrix(1,0,0,1,1005,560.3484375) translate(269.40885416666663 83.78802083333333)"/><use xlink:href="#v" transform="matrix(1,0,0,1,1005,560.3484375) translate(323.81770833333326 83.78802083333333)"/><use xlink:href="#w" transform="matrix(1,0,0,1,1005,560.3484375) translate(345.58124999999995 83.78802083333333)"/><path d="M341 536.35h-2V515.5h2zm280-119.7l-.43 3.3-1.3 3.13-2.07 2.7-2.7 2.08-3.13 1.3-3.3.43h-256l-2.92.37-2.64 1.1-2.27 1.74-1.76 2.3-1.1 2.63-.37 2.92v53.25h-2v-53.38l.43-3.3 1.3-3.13 2.07-2.7 2.7-2.1 3.13-1.28 3.3-.43h256l2.92-.4 2.64-1.1 2.27-1.74 1.76-2.3 1.1-2.62.37-2.92v-7.93h2z" fill="#333"/><path d="M621 407.6v1h-2v-1.02zM340 551.6l-4.64-14.25h9.28z" fill="#333"/><path d="M340 554.85l-6-18.5h12zm-3.26-16.5l3.26 10.03 3.26-10.03z" fill="#333"/><use xlink:href="#x" transform="matrix(1,0,0,1,309.05,493.8961389414728) translate(0.004999999999999005 14.4)"/><path d="M189.6 560.16c3.54-2.66 9.98-4.8 14.4-4.8h328c26.5 0 48 32.37 48 72.3 0 39.96-21.5 72.34-48 72.34H204c-4.42 0-10.86-2.16-14.4-4.8l-83.2-62.7c-3.54-2.67-3.54-6.98 0-9.64z" stroke="#fcc438" fill="#fcc438"/><use xlink:href="#y" transform="matrix(1,0,0,1,105,560.3484375) translate(24.079947916666697 60.3)"/><use xlink:href="#z" transform="matrix(1,0,0,1,105,560.3484375) translate(76.0299479166667 60.3)"/><use xlink:href="#A" transform="matrix(1,0,0,1,105,560.3484375) translate(115.0299479166667 60.3)"/><use xlink:href="#B" transform="matrix(1,0,0,1,105,560.3484375) translate(147.9299479166667 60.3)"/><use xlink:href="#s" transform="matrix(1,0,0,1,105,560.3484375) translate(260.9299479166667 60.3)"/><use xlink:href="#t" transform="matrix(1,0,0,1,105,560.3484375) translate(22.805468750000074 82.003125)"/><use xlink:href="#C" transform="matrix(1,0,0,1,105,560.3484375) translate(251.32265624999994 82.003125)"/><use xlink:href="#D" transform="matrix(1,0,0,1,105,560.3484375) translate(283.96796874999995 82.003125)"/><use xlink:href="#u" transform="matrix(1,0,0,1,105,560.3484375) translate(327.49505208333323 82.003125)"/><use xlink:href="#v" transform="matrix(1,0,0,1,105,560.3484375) translate(381.90390625 82.003125)"/><use xlink:href="#E" transform="matrix(1,0,0,1,105,560.3484375) translate(403.66744791666656 82.003125)"/><path d="M701 536.35h-2v-18h2zm-80-67.2l.38 2.92 1.1 2.63 1.75 2.3 2.28 1.74 2.65 1.1 2.92.38h56l3.3.43 3.13 1.3 2.7 2.07 2.07 2.7 1.3 3.12.43 3.3v3.6h-2v-3.46l-.38-2.92-1.1-2.63-1.75-2.28-2.28-1.76-2.65-1.1-2.92-.38h-56l-3.3-.44-3.13-1.3-2.7-2.06-2.07-2.7-1.3-3.13-.43-3.32v-60.7h2z" fill="#333"/><path d="M621 407.6v1h-2v-1.02zM700 551.6l-4.64-14.25h9.28z" fill="#333"/><path d="M700 554.85l-6-18.5h12zm-3.26-16.5l3.26 10.03 3.26-10.03z" fill="#333"/><use xlink:href="#F" transform="matrix(1,0,0,1,681,496.73949747072055) translate(0.004999999999999005 14.4)"/><path d="M891 536.35h-2v-18h2zM621 416.52l.38 2.92 1.1 2.63 1.75 2.3 2.28 1.74 2.65 1.1 2.92.4h246l3.3.42 3.13 1.3 2.7 2.07 2.07 2.7 1.3 3.1.43 3.32v56.22h-2v-56.1l-.38-2.9-1.1-2.64-1.75-2.3-2.28-1.74-2.65-1.1-2.92-.37h-246l-3.3-.45-3.13-1.3-2.7-2.07-2.07-2.7-1.3-3.12-.43-3.3v-8.07h2z" fill="#333"/><path d="M621 407.6v1h-2v-1.02zM890 551.6l-4.64-14.25h9.28z" fill="#333"/><path d="M890 554.85l-6-18.5h12zm-3.26-16.5l3.26 10.03 3.26-10.03z" fill="#333"/><use xlink:href="#G" transform="matrix(1,0,0,1,837.55,496.73949747072055) translate(0.005000000000002558 14.4)"/><use xlink:href="#H" transform="matrix(1,0,0,1,837.55,496.73949747072055) translate(66.905 14.4)"/><path d="M410 1231v15.03" stroke="#333" fill="none"/><path d="M410.5 1231h-1v-.5h1z" fill="#333"/><path d="M410 1260.8l-4.64-14.27h9.28z" stroke="#333" fill="#333"/><path d="M403.6 1264.8c3.53-2.65 9.27-2.65 12.8 0l67.2 50.4c3.53 2.65 3.53 6.95 0 9.6l-67.2 50.4c-3.53 2.65-9.27 2.65-12.8 0l-67.2-50.4c-3.53-2.65-3.53-6.95 0-9.6z" stroke="#834187" fill="#834187"/><use xlink:href="#I" transform="matrix(1,0,0,1,335,1265) translate(17.549999999999997 58.6)"/><use xlink:href="#J" transform="matrix(1,0,0,1,335,1265) translate(54.5 58.6)"/><path d="M410.5 1416.14h-1v-5.2h1zm0-26.8h-1v-11.25h1z" fill="#333"/><path d="M410.5 1377.6v.5h-1v-.52zM410 1430.9l-4.64-14.26h9.28z" fill="#333"/><path d="M410 1432.52l-5.32-16.38h10.64zm-3.95-15.38l3.95 12.14 3.95-12.14z" fill="#333"/><use xlink:href="#K" transform="matrix(1,0,0,1,401.5,1389.3385250807087) translate(0.005000000000000782 14.4)"/><path d="M260.5 1332.03v31.1h-1v-31.16l.15-1.17h1zm72.36-11.53h-55.93v-1h55.93z" fill="#333"/><path d="M333.34 1320.5h-.5v-1h.54zM260 1377.88l-4.64-14.26h9.28z" fill="#333"/><path d="M260 1379.5l-5.32-16.38h10.64zm-3.95-15.38l3.95 12.14 3.95-12.14z" fill="#333"/><use xlink:href="#L" transform="matrix(1,0,0,1,256.9295492973624,1309.2) translate(0.005000000000000782 14.4)"/><path d="M180 1388c0-4.42 3.58-8 8-8h144c4.42 0 8 3.58 8 8v34c0 4.42-3.58 8-8 8H188c-4.42 0-8-3.58-8-8z" stroke="#19967d" fill="#19967d"/><use xlink:href="#M" transform="matrix(1,0,0,1,192,1392) translate(14.599999999999994 16.6)"/><use xlink:href="#N" transform="matrix(1,0,0,1,192,1392) translate(90.45 16.6)"/><path d="M260 1431v47c0 6.63 5.37 12 12 12h49.88" stroke="#333" fill="none"/><path d="M260.5 1431h-1v-.5h1z" fill="#333"/><path d="M336.64 1490l-14.26 4.64v-9.28z" stroke="#333" fill="#333"/><path d="M403.75 1435c3.45-2.76 9.05-2.76 12.5 0l62.5 50c3.45 2.76 3.45 7.24 0 10l-62.5 50c-3.45 2.76-9.05 2.76-12.5 0l-62.5-50c-3.45-2.76-3.45-7.24 0-10z" stroke="#834187" fill="#834187"/><use xlink:href="#O" transform="matrix(1,0,0,1,340,1435) translate(27.574999999999996 47.8)"/><use xlink:href="#P" transform="matrix(1,0,0,1,340,1435) translate(57.474999999999994 47.8)"/><use xlink:href="#Q" transform="matrix(1,0,0,1,340,1435) translate(93.42500000000001 47.8)"/><use xlink:href="#R" transform="matrix(1,0,0,1,340,1435) translate(41.55 69.4)"/><path d="M410.5 1616.2h-1v-15.37h1zm0-36.97h-1v-31.25h1z" fill="#333"/><path d="M410.5 1548h-1v-.5l1-.03zM410 1630.95l-4.64-14.26h9.28z" fill="#333"/><path d="M410 1632.57l-5.32-16.38h10.64zm-3.95-15.38l3.95 12.13 3.95-12.14z" fill="#333"/><use xlink:href="#K" transform="matrix(1,0,0,1,401.5,1579.2255032572823) translate(0.005000000000000782 14.4)"/><path d="M403.84 1635.1c3.4-2.82 8.92-2.82 12.32 0l60.18 49.8c3.4 2.82 3.4 7.38 0 10.2l-60.18 49.8c-3.4 2.82-8.92 2.82-12.32 0l-60.18-49.8c-3.4-2.82-3.4-7.38 0-10.2z" stroke="#834187" fill="#834187"/><use xlink:href="#I" transform="matrix(1,0,0,1,342.5,1635) translate(39.025 47.8)"/><use xlink:href="#S" transform="matrix(1,0,0,1,342.5,1635) translate(75.975 47.8)"/><use xlink:href="#T" transform="matrix(1,0,0,1,342.5,1635) translate(25.599999999999987 69.4)"/><path d="M694.84 1490.5h-212.6v-1h212.6zm308.28 0H714.84v-1h288.28z" fill="#333"/><path d="M482.25 1490.5h-.5v-1h.5zM1017.88 1490l-14.26 4.64v-9.28z" fill="#333"/><path d="M1019.5 1490l-16.38 5.32v-10.64zm-15.38 3.95l12.14-3.95-12.14-3.95z" fill="#333"/><use xlink:href="#L" transform="matrix(1,0,0,1,694.835915582563,1479.2) translate(0.005000000000000782 14.4)"/><path d="M1020 1478c0-4.42 3.58-8 8-8h284c4.42 0 8 3.58 8 8v24c0 4.42-3.58 8-8 8h-284c-4.42 0-8-3.58-8-8z" stroke="#c92d39" fill="#c92d39"/><use xlink:href="#k" transform="matrix(1,0,0,1,1032,1482) translate(80.575 14.4)"/><use xlink:href="#U" transform="matrix(1,0,0,1,1032,1482) translate(123.525 14.4)"/><use xlink:href="#V" transform="matrix(1,0,0,1,1032,1482) translate(148.525 14.4)"/><path d="M303 1690.5h-5.97l-3 .4-2.77 1.14-2.4 1.83-1.82 2.4-1.14 2.75-.4 3v194h-1v-194.05l.42-3.2 1.24-3 2-2.6 2.6-2 3-1.25 3.2-.42H303zm37.16 0h-14.2v-1h14.2z" fill="#333"/><path d="M340.64 1690.5h-.5v-1h.54zM285 1910.8l-4.64-14.27h9.28z" fill="#333"/><path d="M285 1912.4l-5.32-16.37h10.64zm-3.95-15.37l3.95 12.15 3.95-12.15z" fill="#333"/><use xlink:href="#W" transform="matrix(1,0,0,1,302.998730288824,1679.2) translate(0.005000000000000782 14.4)"/><path d="M278.6 1914.8c3.53-2.65 9.27-2.65 12.8 0l67.2 50.4c3.53 2.65 3.53 6.95 0 9.6l-67.2 50.4c-3.53 2.65-9.27 2.65-12.8 0l-67.2-50.4c-3.53-2.65-3.53-6.95 0-9.6z" stroke="#834187" fill="#834187"/><use xlink:href="#I" transform="matrix(1,0,0,1,210,1915) translate(27.574999999999996 47.8)"/><use xlink:href="#X" transform="matrix(1,0,0,1,210,1915) translate(64.525 47.8)"/><use xlink:href="#Y" transform="matrix(1,0,0,1,210,1915) translate(55.025 69.4)"/><path d="M410.5 1957.97l.4 3 1.14 2.77 1.83 2.4 2.4 1.82 2.75 1.14 3 .4h5.1v1h-5.15l-3.2-.42-3-1.24-2.6-2-2-2.6-1.25-3-.42-3.2v-115.45h1zm0-136.98h-1v-73.07h1z" fill="#333"/><path d="M410.5 1747.94h-1v-.5l1-.03zM441.87 1970l-14.26 4.64v-9.28z" fill="#333"/><path d="M443.5 1970l-16.4 5.32v-10.64zm-15.4 3.95l12.15-3.95-12.14-3.95z" fill="#333"/><use xlink:href="#Z" transform="matrix(1,0,0,1,402.025,1820.990204685035) translate(0.004999999999999893 14.4)"/><path d="M383.86 1970.5h-21.72v-1h21.72zm43.25 0h-23.24v-1h23.25z" fill="#333"/><path d="M362.15 1970.5h-.53l.04-1h.5zM441.87 1970l-14.26 4.64v-9.28z" fill="#333"/><path d="M443.5 1970l-16.4 5.32v-10.64zm-15.4 3.95l12.15-3.95-12.14-3.95z" fill="#333"/><use xlink:href="#L" transform="matrix(1,0,0,1,383.8613591382117,1959.2) translate(0.005000000000000782 14.4)"/><path d="M523.34 1914.44c3.68-2.45 9.64-2.45 13.32 0l76.68 51.12c3.68 2.45 3.68 6.43 0 8.88l-76.68 51.12c-3.68 2.45-9.64 2.45-13.32 0l-76.68-51.12c-3.68-2.45-3.68-6.43 0-8.88z" stroke="#834187" fill="#834187"/><use xlink:href="#I" transform="matrix(1,0,0,1,445,1915) translate(33.12499999999999 47.8)"/><use xlink:href="#aa" transform="matrix(1,0,0,1,445,1915) translate(70.07499999999999 47.8)"/><use xlink:href="#ab" transform="matrix(1,0,0,1,445,1915) translate(89.02499999999999 47.8)"/><use xlink:href="#ac" transform="matrix(1,0,0,1,445,1915) translate(28.624999999999993 69.4)"/><use xlink:href="#T" transform="matrix(1,0,0,1,445,1915) translate(57.57499999999999 69.4)"/><path d="M530.5 1911.7h-1v-29.56h1zm0-51.16h-1v-13.66h1z" fill="#333"/><path d="M530.5 1912.22l-1-.07v-.48h1zM534.64 1846.38h-9.28l4.64-14.26z" fill="#333"/><path d="M535.32 1846.88h-10.64l5.32-16.38zm-9.27-1h7.9l-3.95-12.14z" fill="#333"/><use xlink:href="#L" transform="matrix(1,0,0,1,520,1860.5435193565065) translate(0.005000000000000782 14.4)"/><path d="M681.98 1970.5H617v-1H682zm65.04 0h-49.1v-1h49.1z" fill="#333"/><path d="M617.02 1970.5h-.58l.14-1h.44zM761.78 1970l-14.26 4.64v-9.28z" fill="#333"/><path d="M763.4 1970l-16.38 5.32v-10.64zm-15.38 3.95l12.14-3.95-12.14-3.95z" fill="#333"/><use xlink:href="#Z" transform="matrix(1,0,0,1,681.9797118837255,1959.2) translate(0.004999999999999893 14.4)"/><path d="M836.03 1914.7c3.57-2.6 9.37-2.6 12.94 0l69.56 50.6c3.57 2.6 3.57 6.8 0 9.4l-69.56 50.6c-3.57 2.6-9.37 2.6-12.94 0l-69.56-50.6c-3.57-2.6-3.57-6.8 0-9.4z" stroke="#834187" fill="#834187"/><use xlink:href="#ad" transform="matrix(1,0,0,1,765,1915) translate(41.1 37)"/><use xlink:href="#ae" transform="matrix(1,0,0,1,765,1915) translate(73 37)"/><use xlink:href="#af" transform="matrix(1,0,0,1,765,1915) translate(23.04999999999999 58.6)"/><use xlink:href="#ag" transform="matrix(1,0,0,1,765,1915) translate(68 58.6)"/><use xlink:href="#ah" transform="matrix(1,0,0,1,765,1915) translate(97.95 58.6)"/><use xlink:href="#ai" transform="matrix(1,0,0,1,765,1915) translate(51.525 80.20000000000002)"/><path d="M285.5 2093.12h-1v-13.78h1zm0-35.38h-1v-29.65h1z" fill="#333"/><path d="M285.5 2027.6v.5h-1v-.52zM285 2107.88l-4.64-14.26h9.28z" fill="#333"/><path d="M285 2109.5l-5.32-16.38h10.64zm-3.95-15.38l3.95 12.14 3.95-12.14z" fill="#333"/><use xlink:href="#Z" transform="matrix(1,0,0,1,277.025,2057.743149489007) translate(0.004999999999999893 14.4)"/><path d="M390 2110c-11.6 0-21 13.43-21 30s9.4 30 21 30H201c-11.6 0-21-13.43-21-30s9.4-30 21-30z" stroke="#fcc438" fill="#fcc438"/><use xlink:href="#aj" transform="matrix(1,0,0,1,185,2115) translate(19 28.6)"/><use xlink:href="#ak" transform="matrix(1,0,0,1,185,2115) translate(89.9 28.6)"/><use xlink:href="#al" transform="matrix(1,0,0,1,185,2115) translate(134.85000000000002 28.6)"/><path d="M967.05 1970.5H922.1v-1h44.95zm46.07 0h-29.07v-1h29.07z" fill="#333"/><path d="M922.1 1970.5h-.53l.06-1h.48zM1027.88 1970l-14.26 4.64v-9.28z" fill="#333"/><path d="M1029.5 1970l-16.38 5.32v-10.64zm-15.38 3.95l12.14-3.95-12.14-3.95z" fill="#333"/><use xlink:href="#K" transform="matrix(1,0,0,1,967.0502213508504,1959.2) translate(0.005000000000000782 14.4)"/><path d="M1030 1958c0-4.42 3.58-8 8-8h244c4.42 0 8 3.58 8 8v24c0 4.42-3.58 8-8 8h-244c-4.42 0-8-3.58-8-8z" stroke="#c92d39" fill="#c92d39"/><use xlink:href="#am" transform="matrix(1,0,0,1,1042,1962) translate(38.599999999999994 14.4)"/><use xlink:href="#an" transform="matrix(1,0,0,1,1042,1962) translate(66.55 14.4)"/><use xlink:href="#ao" transform="matrix(1,0,0,1,1042,1962) translate(100.55 14.4)"/><use xlink:href="#ap" transform="matrix(1,0,0,1,1042,1962) translate(172.45000000000002 14.4)"/><path d="M843 2073.12h-1v-3.75h1zm0-25.35h-1v-19.63h1z" fill="#333"/><path d="M843 2027.65v.5h-1v-.52zM842.5 2087.88l-4.64-14.26h9.28z" fill="#333"/><path d="M842.5 2089.5l-5.32-16.38h10.64zm-3.95-15.38l3.95 12.14 3.95-12.14z" fill="#333"/><use xlink:href="#L" transform="matrix(1,0,0,1,832.5,2047.77052345806) translate(0.005000000000000782 14.4)"/><path d="M762.5 2098c0-4.42 3.58-8 8-8h144c4.42 0 8 3.58 8 8v24c0 4.42-3.58 8-8 8h-144c-4.42 0-8-3.58-8-8z" stroke="#19967d" fill="#19967d"/><use xlink:href="#aq" transform="matrix(1,0,0,1,774.5,2102) translate(10.149999999999991 14.4)"/><use xlink:href="#ar" transform="matrix(1,0,0,1,774.5,2102) translate(84.95 14.4)"/><path d="M842.5 2131v22.12" stroke="#333" fill="none"/><path d="M843 2131h-1v-.5h1z" fill="#333"/><path d="M842.5 2167.88l-4.64-14.26h9.28z" stroke="#333" fill="#333"/><path d="M762.5 2178c0-4.42 3.58-8 8-8h144c4.42 0 8 3.58 8 8v24c0 4.42-3.58 8-8 8h-144c-4.42 0-8-3.58-8-8z" stroke="#19967d" fill="#19967d"/><use xlink:href="#as" transform="matrix(1,0,0,1,774.5,2182) translate(3.5999999999999943 14.4)"/><use xlink:href="#at" transform="matrix(1,0,0,1,774.5,2182) translate(44.55 14.4)"/><use xlink:href="#ap" transform="matrix(1,0,0,1,774.5,2182) translate(107.45 14.4)"/><path d="M842.5 2211v25.03" stroke="#333" fill="none"/><path d="M843 2211h-1v-.5h1z" fill="#333"/><path d="M842.5 2250.8l-4.64-14.27h9.28z" stroke="#333" fill="#333"/><path d="M836.1 2254.8c3.53-2.65 9.27-2.65 12.8 0l67.2 50.4c3.53 2.65 3.53 6.95 0 9.6l-67.2 50.4c-3.53 2.65-9.27 2.65-12.8 0l-67.2-50.4c-3.53-2.65-3.53-6.95 0-9.6z" stroke="#834187" fill="#834187"/><use xlink:href="#au" transform="matrix(1,0,0,1,767.5,2255) translate(33.574999999999996 47.8)"/><use xlink:href="#av" transform="matrix(1,0,0,1,767.5,2255) translate(52.05 69.4)"/><path d="M698.18 2310.5h-34.3v-1h34.3zm67.18 0h-50.18v-1h50.18z" fill="#333"/><path d="M765.84 2310.5h-.5v-1h.54zM663.38 2314.64l-14.26-4.64 14.26-4.64z" fill="#333"/><path d="M663.88 2315.32L647.5 2310l16.38-5.32zm-13.14-5.32l12.14 3.95v-7.9z" fill="#333"/><use xlink:href="#K" transform="matrix(1,0,0,1,698.1798654700849,2299.2) translate(0.005000000000000782 14.4)"/><path d="M665 2261.3c-9.94 0-18 21.8-18 48.7 0 26.9 8.06 48.7 18 48.7H503c-9.94 0-18-21.8-18-48.7 0-26.9 8.06-48.7 18-48.7z" stroke="#fcc438" fill="#fcc438"/><use xlink:href="#aw" transform="matrix(1,0,0,1,490,2266.3) translate(26.14999999999999 26)"/><use xlink:href="#ax" transform="matrix(1,0,0,1,490,2266.3) translate(89.05 26)"/><use xlink:href="#ay" transform="matrix(1,0,0,1,490,2266.3) translate(0.17499999999999716 47.6)"/><use xlink:href="#az" transform="matrix(1,0,0,1,490,2266.3) translate(110.025 47.6)"/><use xlink:href="#aA" transform="matrix(1,0,0,1,490,2266.3) translate(34.074999999999996 69.2)"/><use xlink:href="#aB" transform="matrix(1,0,0,1,490,2266.3) translate(59.074999999999996 69.2)"/><path d="M843 2406.03h-1v-9.36h1zm0-30.96h-1v-6.98h1z" fill="#333"/><path d="M843 2367.6v.5h-1v-.52zM842.5 2420.8l-4.64-14.27h9.28z" fill="#333"/><path d="M842.5 2422.4l-5.32-16.37h10.64zm-3.95-15.37l3.95 12.15 3.95-12.15z" fill="#333"/><use xlink:href="#L" transform="matrix(1,0,0,1,832.5,2375.0672769246466) translate(0.005000000000000782 14.4)"/><path d="M836.1 2424.8c3.53-2.65 9.27-2.65 12.8 0l67.2 50.4c3.53 2.65 3.53 6.95 0 9.6l-67.2 50.4c-3.53 2.65-9.27 2.65-12.8 0l-67.2-50.4c-3.53-2.65-3.53-6.95 0-9.6z" stroke="#834187" fill="#834187"/><use xlink:href="#I" transform="matrix(1,0,0,1,767.5,2425) translate(23.124999999999993 47.8)"/><use xlink:href="#aC" transform="matrix(1,0,0,1,767.5,2425) translate(60.074999999999996 47.8)"/><use xlink:href="#aD" transform="matrix(1,0,0,1,767.5,2425) translate(79.02499999999999 47.8)"/><use xlink:href="#P" transform="matrix(1,0,0,1,767.5,2425) translate(39.54999999999999 69.4)"/><use xlink:href="#aE" transform="matrix(1,0,0,1,767.5,2425) translate(75.5 69.4)"/><path d="M845.5 2576.03h-1v-.23h1zm-2.5-21.83h-1v-16.1h1zM843 2537.6v.5h-1v-.52zM845 2590.8l-4.64-14.27h9.28z" fill="#333"/><path d="M845 2592.4l-5.32-16.37h10.64zm-3.95-15.37l3.95 12.15 3.95-12.15z" fill="#333"/><use xlink:href="#K" transform="matrix(1,0,0,1,835.25,2554.2) translate(0.005000000000000782 14.4)"/><path d="M838.6 2594.8c3.53-2.65 9.27-2.65 12.8 0l67.2 50.4c3.53 2.65 3.53 6.95 0 9.6l-67.2 50.4c-3.53 2.65-9.27 2.65-12.8 0l-67.2-50.4c-3.53-2.65-3.53-6.95 0-9.6z" stroke="#834187" fill="#834187"/><use xlink:href="#aF" transform="matrix(1,0,0,1,770,2595) translate(34.575 47.8)"/><use xlink:href="#aG" transform="matrix(1,0,0,1,770,2595) translate(79.525 47.8)"/><use xlink:href="#aH" transform="matrix(1,0,0,1,770,2595) translate(33.55 69.4)"/><path d="M963.5 2468.03l-.42 3.2-1.24 3-2 2.6-2.6 2-3 1.25-3.2.42h-31.4v-1h31.33l3-.4 2.77-1.14 2.4-1.83 1.82-2.4 1.14-2.75.4-3v-160.25h1zm-9.26-358.1l3 1.23 2.6 2 2 2.6 1.24 3 .42 3.2v164.17h-1v-164.1l-.4-3-1.14-2.77-1.83-2.4-2.4-1.82-2.75-1.14-3-.4h-11.6v-1h11.65z" fill="#333"/><path d="M919.65 2480.5h-.53l.04-1h.5zM938.88 2114.64l-14.26-4.64 14.26-4.64z" fill="#333"/><path d="M939.38 2115.32L923 2110l16.38-5.32zm-13.14-5.32l12.14 3.95v-7.9z" fill="#333"/><use xlink:href="#L" transform="matrix(1,0,0,1,953,2286.1295492973622) translate(0.005000000000000782 14.4)"/><path d="M704 2650.5h-30.98v-1H704zm63.86 0H721v-1h46.86z" fill="#333"/><path d="M768.34 2650.5h-.5v-1h.54zM672.52 2654.64l-14.26-4.64 14.26-4.64z" fill="#333"/><path d="M673.02 2655.32l-16.38-5.32 16.38-5.32zm-13.14-5.32l12.14 3.95v-7.9z" fill="#333"/><g><use xlink:href="#K" transform="matrix(1,0,0,1,704,2639.2) translate(0.005000000000000782 14.4)"/></g><path d="M573.6 2594.8c3.53-2.65 9.27-2.65 12.8 0l67.2 50.4c3.53 2.65 3.53 6.95 0 9.6l-67.2 50.4c-3.53 2.65-9.27 2.65-12.8 0l-67.2-50.4c-3.53-2.65-3.53-6.95 0-9.6z" stroke="#834187" fill="#834187"/><g><use xlink:href="#aI" transform="matrix(1,0,0,1,505,2595) translate(3.5999999999999943 58.6)"/><use xlink:href="#aJ" transform="matrix(1,0,0,1,505,2595) translate(81.45 58.6)"/><use xlink:href="#aK" transform="matrix(1,0,0,1,505,2595) translate(105.45 58.6)"/></g><path d="M965.57 2650.5h-43.43v-1h43.43zm47.55 0h-27.55v-1h27.55z" fill="#333"/><path d="M922.15 2650.5h-.53l.04-1h.5zM1027.88 2650l-14.26 4.64v-9.28z" fill="#333"/><path d="M1029.5 2650l-16.38 5.32v-10.64zm-15.38 3.95l12.14-3.95-12.14-3.95z" fill="#333"/><g><use xlink:href="#L" transform="matrix(1,0,0,1,965.5704507026376,2639.2) translate(0.005000000000000782 14.4)"/></g><path d="M1030 2628c0-4.42 3.58-8 8-8h364c4.42 0 8 3.58 8 8v44c0 4.42-3.58 8-8 8h-364c-4.42 0-8-3.58-8-8z" stroke="#c92d39" fill="#c92d39"/><g><use xlink:href="#am" transform="matrix(1,0,0,1,1042,2632) translate(5.200000000000017 21.6)"/><use xlink:href="#aL" transform="matrix(1,0,0,1,1042,2632) translate(33.15000000000002 21.6)"/><use xlink:href="#aM" transform="matrix(1,0,0,1,1042,2632) translate(57.15000000000002 21.6)"/><use xlink:href="#aN" transform="matrix(1,0,0,1,1042,2632) translate(132.10000000000002 21.6)"/><use xlink:href="#aO" transform="matrix(1,0,0,1,1042,2632) translate(173.00000000000003 21.6)"/><use xlink:href="#l" transform="matrix(1,0,0,1,1042,2632) translate(228.95000000000002 21.6)"/><use xlink:href="#ao" transform="matrix(1,0,0,1,1042,2632) translate(253.95000000000002 21.6)"/><use xlink:href="#ap" transform="matrix(1,0,0,1,1042,2632) translate(325.85 21.6)"/></g><path d="M575 2359.7V2468c0 6.63 5.38 12 12 12H749.5" stroke="#333" fill="none"/><path d="M575.5 2359.7h-1v-.5h1z" fill="#333"/><path d="M764.24 2480l-14.26 4.64v-9.28z" stroke="#333" fill="#333"/><path d="M370 2140h148c6.63 0 12-5.37 12-12v-83.8" stroke="#333" fill="none"/><path d="M370 2140.5h-.46l-.04-.5.02-.5h.5z" fill="#333"/><path d="M530 2029.43l4.64 14.27h-9.28z" stroke="#333" fill="#333"/><path d="M1451.24 1489.92l3 1.24 2.6 2 2 2.6 1.24 3 .42 3.2v1576.07l-.42 3.2-1.24 3-2 2.6-2.6 2-3 1.25-3.2.42H896.87v-1h551.1l3-.4 2.76-1.14 2.4-1.83 1.82-2.4 1.14-2.75.4-3V1502.02l-.4-3-1.14-2.77-1.83-2.4-2.4-1.82-2.75-1.14-3-.4H1321v-1h127.03z" fill="#333"/><path d="M1321 1490.5h-.5v-1h.5zM896.38 3094.64l-14.26-4.64 14.26-4.64z" fill="#333"/><path d="M896.88 3095.32L880.5 3090l16.38-5.32zm-13.14-5.32l12.14 3.95v-7.9z" fill="#333"/><path d="M848 3050c17.67 0 32 17.9 32 40s-14.33 40-32 40h-96c-17.67 0-32-17.9-32-40s14.33-40 32-40z" stroke="#ff741d" fill="#ff741d"/><g><use xlink:href="#aP" transform="matrix(1,0,0,1,725,3055) translate(62.55 38.6)"/></g><path d="M1291 1970h152.62" stroke="#333" fill="none"/><path d="M1291 1970.5h-.5v-1h.5z" fill="#333"/><path d="M1458.38 1970l-14.26 4.64v-9.28z" stroke="#333" fill="#333"/><path d="M1411 2650h32.62" stroke="#333" fill="none"/><path d="M1411 2650.5h-.5v-1h.5z" fill="#333"/><path d="M1458.38 2650l-14.26 4.64v-9.28z" stroke="#333" fill="#333"/><path d="M353.43 2650.5h-1.4l-3 .4-2.77 1.14-2.4 1.83-1.82 2.4-1.14 2.75-.4 3v91.1h-1v-91.15l.42-3.2 1.24-3 2-2.6 2.6-2 3-1.25 3.2-.42h1.47zm149.43 0H370.43v-1h132.43z" fill="#333"/><path d="M503.34 2650.5h-.5v-1h.54zM340 2767.88l-4.64-14.26h9.28z" fill="#333"/><path d="M340 2769.5l-5.32-16.38h10.64zm-3.95-15.38l3.95 12.14 3.95-12.14z" fill="#333"/><g><use xlink:href="#K" transform="matrix(1,0,0,1,353.4295492973624,2639.2) translate(0.005000000000000782 14.4)"/></g><path d="M260 2778c0-4.42 3.58-8 8-8h144c4.42 0 8 3.58 8 8v210c0 4.42-3.58 8-8 8H268c-4.42 0-8-3.58-8-8z" stroke="#19967d" fill="#19967d"/><g><use xlink:href="#aQ" transform="matrix(1,0,0,1,272,2782) translate(10.599999999999994 39.800000000000004)"/><use xlink:href="#aR" transform="matrix(1,0,0,1,272,2782) translate(63.5 39.800000000000004)"/><use xlink:href="#aS" transform="matrix(1,0,0,1,272,2782) translate(2.0250000000000057 61.400000000000006)"/><use xlink:href="#l" transform="matrix(1,0,0,1,272,2782) translate(37.025000000000006 61.400000000000006)"/><use xlink:href="#aT" transform="matrix(1,0,0,1,272,2782) translate(62.025000000000006 61.400000000000006)"/><use xlink:href="#aU" transform="matrix(1,0,0,1,272,2782) translate(89.97500000000001 61.400000000000006)"/><use xlink:href="#aV" transform="matrix(1,0,0,1,272,2782) translate(24.549999999999997 83.00000000000001)"/><use xlink:href="#aW" transform="matrix(1,0,0,1,272,2782) translate(102.45 83.00000000000001)"/><use xlink:href="#aX" transform="matrix(1,0,0,1,272,2782) translate(25.049999999999997 104.60000000000002)"/><use xlink:href="#aY" transform="matrix(1,0,0,1,272,2782) translate(91.95 104.60000000000002)"/><use xlink:href="#aZ" transform="matrix(1,0,0,1,272,2782) translate(12.524999999999999 126.20000000000002)"/><use xlink:href="#ba" transform="matrix(1,0,0,1,272,2782) translate(76.525 126.20000000000002)"/><use xlink:href="#bb" transform="matrix(1,0,0,1,272,2782) translate(5.549999999999997 147.8)"/><use xlink:href="#bc" transform="matrix(1,0,0,1,272,2782) translate(44.55 147.8)"/><use xlink:href="#bd" transform="matrix(1,0,0,1,272,2782) translate(77.45 147.8)"/><use xlink:href="#be" transform="matrix(1,0,0,1,272,2782) translate(40.5 169.4)"/><use xlink:href="#bf" transform="matrix(1,0,0,1,272,2782) translate(75.5 169.4)"/></g><path d="M580.5 2753.12h-1v-3.78h1zm0-25.38h-1v-19.65h1z" fill="#333"/><path d="M580.5 2707.6v.5h-1v-.52zM580 2767.88l-4.64-14.26h9.28z" fill="#333"/><path d="M580 2769.5l-5.32-16.38h10.64zm-3.95-15.38l3.95 12.14 3.95-12.14z" fill="#333"/><g><use xlink:href="#L" transform="matrix(1,0,0,1,570,2727.743149489007) translate(0.005000000000000782 14.4)"/></g><path d="M500 2778c0-4.42 3.58-8 8-8h144c4.42 0 8 3.58 8 8v104c0 4.42-3.58 8-8 8H508c-4.42 0-8-3.58-8-8z" stroke="#19967d" fill="#19967d"/><g><use xlink:href="#bg" transform="matrix(1,0,0,1,512,2782) translate(10.125 30)"/><use xlink:href="#ae" transform="matrix(1,0,0,1,512,2782) translate(84.97500000000001 30)"/><use xlink:href="#l" transform="matrix(1,0,0,1,512,2782) translate(37.55 51.6)"/><use xlink:href="#aG" transform="matrix(1,0,0,1,512,2782) translate(62.55 51.6)"/><use xlink:href="#bh" transform="matrix(1,0,0,1,512,2782) translate(31.549999999999997 73.2)"/></g><path d="M340 2997v81c0 6.63 5.37 12 12 12h351.12" stroke="#333" fill="none"/><path d="M340.5 2997h-1v-.5h1z" fill="#333"/><path d="M717.88 3090l-14.26 4.64v-9.28z" stroke="#333" fill="#333"/><path d="M580 2891v67c0 6.63 5.37 12 12 12h196c6.63 0 12 5.37 12 12v51.12" stroke="#333" fill="none"/><path d="M580.5 2891h-1v-.5h1z" fill="#333"/><path d="M800 3047.88l-4.64-14.26h9.28z" stroke="#333" fill="#333"/><path d="M340.96 701v37c0 6.63 5.38 12 12 12h432.58c6.63 0 12 5.37 12 12v21.12" stroke="#333" fill="none"/><path d="M341.46 701h-1v-.5h1z" fill="#333"/><path d="M797.54 797.88l-4.64-14.26h9.27z" stroke="#333" fill="#333"/><path d="M845.54 800c17.67 0 32 17.9 32 40s-14.33 40-32 40h-96c-17.67 0-32-17.9-32-40s14.33-40 32-40z" stroke="#ff741d" fill="#ff741d"/><g><use xlink:href="#aP" transform="matrix(1,0,0,1,722.5384153749732,805) translate(62.55 38.6)"/></g><path d="M797.54 799v-37c0-6.63 5.37-12 12-12H1208c6.63 0 12-5.37 12-12v-21.12" stroke="#333" fill="none"/><path d="M798.04 799.5h-1v-.5h1z" fill="#333"/><path d="M1220 702.12l4.64 14.26h-9.28z" stroke="#333" fill="#333"/><path d="M890 701v37c0 6.63-5.37 12-12 12h-68.46c-6.63 0-12 5.37-12 12v21.12" stroke="#333" fill="none"/><path d="M890.5 701h-1v-.5h1z" fill="#333"/><path d="M797.54 797.88l-4.64-14.26h9.27z" stroke="#333" fill="#333"/><path d="M700.5 701v37c0 6.63 5.38 12 12 12h73.04c6.63 0 12 5.37 12 12v21.12" stroke="#333" fill="none"/><path d="M701 701h-1v-.5h1z" fill="#333"/><path d="M797.54 797.88l-4.64-14.26h9.27z" stroke="#333" fill="#333"/><path d="M450 1778c0-4.42 3.58-8 8-8h144c4.42 0 8 3.58 8 8v44c0 4.42-3.58 8-8 8H458c-4.42 0-8-3.58-8-8z" stroke="#19967d" fill="#19967d"/><g><use xlink:href="#bi" transform="matrix(1,0,0,1,462,1782) translate(33.099999999999994 14.4)"/><use xlink:href="#bj" transform="matrix(1,0,0,1,462,1782) translate(31.099999999999994 36)"/></g><path d="M530 1769v-67c0-6.63-5.37-12-12-12h-22.27" stroke="#333" fill="none"/><path d="M530.5 1769.5h-1v-.5h1z" fill="#333"/><path d="M480.96 1690l14.27-4.64v9.28z" stroke="#333" fill="#333"/><defs><path fill="#fff" d="M125-24c46 0 70-25 89-51l25 16C214-24 183 4 123 4 8 4-5-146 60-208c32-50 158-61 191-5 5 7 9 14 11 22l-32 10c-9-28-33-43-69-43-74 0-108 51-108 125 0 46 24 75 72 75" id="bk"/><path fill="#fff" d="M11 0l48-248h34L50-27h125l-5 27H11" id="bl"/><path fill="#fff" d="M14 0l48-248h34L48 0H14" id="bm"/><path fill="#fff" d="M44-154l7-36h35l-8 36H44zM14 0l7-36h35L49 0H14" id="bn"/><g id="a"><use transform="matrix(0.05,0,0,0.05,0,0)" xlink:href="#bk"/><use transform="matrix(0.05,0,0,0.05,12.950000000000001,0)" xlink:href="#bl"/><use transform="matrix(0.05,0,0,0.05,22.950000000000003,0)" xlink:href="#bm"/><use transform="matrix(0.05,0,0,0.05,27.950000000000003,0)" xlink:href="#bn"/></g><path fill="#fff" d="M248-111c6-24 9-61-24-58-72 9-57 108-77 169h-31l26-142c3-37-50-30-64-10C52-115 50-51 37 0H6l36-190h30c-1 10-6 24-4 32 13-43 101-52 105 5 13-22 29-41 61-41 90 0 28 129 23 194h-31" id="bo"/><path fill="#fff" d="M133-28C103 26-5 8 13-77c13-62 24-115 90-117 29-1 46 15 56 35l19-102h32L160 0h-30zM45-64c-2 27 10 43 35 43 54-1 69-50 69-103 0-29-15-46-42-46-53-1-58 58-62 106" id="bp"/><path fill="#fff" d="M6 0l50-261h32L37 0H6" id="bq"/><path fill="#fff" d="M50-231l6-30h32l-6 30H50zM6 0l37-190h31L37 0H6" id="br"/><path fill="#fff" d="M67-158c22-48 132-52 116 29L158 0h-32l25-140c3-38-53-32-70-12C52-117 51-52 38 0H6l36-190h30" id="bs"/><path fill="#fff" d="M127 0L80-88 50-66 37 0H6l51-261h31L57-100l99-90h39l-93 82L161 0h-34" id="bt"/><path fill="#fff" d="M55-144c13 50 104 24 104 88C159 21 15 23 1-39l26-10c6 40 102 42 102-4-13-50-104-23-104-87 0-71 143-71 148-8l-29 4c-5-35-85-37-89 0" id="bu"/><path fill="#fff" d="M17-49c1-102 45-165 103-212h30C92-210 49-145 49-46 49 4 63 43 85 75H54C30 43 18 2 17-49" id="bv"/><path fill="#fff" d="M67-162c32-53 139-36 121 50C175-51 163 2 97 4 68 4 52-11 42-31 38 6 28 39 22 75H-9l50-265h29c-1 10 0 20-3 28zm89 36c0-26-10-43-35-43-54 0-67 50-69 103-1 29 14 45 42 46 53 0 62-58 62-106" id="bw"/><path fill="#fff" d="M165-48c-4 18 1 34 23 27l-3 20c-29 8-62 0-52-35h-2C116-14 99 4 63 4 30 4 8-16 8-49c0-68 71-67 138-67 10-26 0-56-31-54-26 1-42 9-47 31l-32-5c8-67 160-71 144 15-5 28-9 54-15 81zM42-50c3 52 80 24 89-6 7-12 7-24 11-38-47 1-103-4-100 44" id="bx"/><path fill="#fff" d="M51-54c-9 22 5 41 31 30L79-1C43 14 10-4 19-52l22-115H19l5-23h22l19-43h21l-9 43h35l-4 23H73" id="by"/><path fill="#fff" d="M67-158c15-20 31-36 64-36 94 0 33 127 27 194h-32l25-140c3-38-53-32-70-12C52-117 51-51 37 0H6l51-261h31" id="bz"/><path fill="#fff" d="M58-38C53-5 46 26 28 46H7C19 32 27 18 32 0H17l7-38h34" id="bA"/><g id="b"><use transform="matrix(0.05,0,0,0.05,0,0)" xlink:href="#bo"/><use transform="matrix(0.05,0,0,0.05,14.950000000000001,0)" xlink:href="#bp"/><use transform="matrix(0.05,0,0,0.05,24.950000000000003,0)" xlink:href="#bq"/><use transform="matrix(0.05,0,0,0.05,28.900000000000002,0)" xlink:href="#br"/><use transform="matrix(0.05,0,0,0.05,32.85,0)" xlink:href="#bs"/><use transform="matrix(0.05,0,0,0.05,42.85,0)" xlink:href="#bt"/><use transform="matrix(0.05,0,0,0.05,51.85,0)" xlink:href="#bu"/><use transform="matrix(0.05,0,0,0.05,60.85,0)" xlink:href="#bv"/><use transform="matrix(0.05,0,0,0.05,66.8,0)" xlink:href="#bw"/><use transform="matrix(0.05,0,0,0.05,76.8,0)" xlink:href="#bx"/><use transform="matrix(0.05,0,0,0.05,86.8,0)" xlink:href="#by"/><use transform="matrix(0.05,0,0,0.05,91.8,0)" xlink:href="#bz"/><use transform="matrix(0.05,0,0,0.05,101.8,0)" xlink:href="#bA"/></g><path fill="#fff" d="M30-147c31-64 166-65 159 27C183-49 158 1 86 4 9 8 1-88 30-147zM88-20c53 0 68-48 68-100 0-31-11-51-44-50-52 1-68 46-68 97 0 32 13 53 44 53" id="bB"/><path fill="#fff" d="M98-137C97-35 54 29-4 75h-31C23 23 67-41 67-140c0-50-15-89-37-121h31c24 32 36 73 37 124" id="bC"/><g id="c"><use transform="matrix(0.05,0,0,0.05,0,0)" xlink:href="#bB"/><use transform="matrix(0.05,0,0,0.05,10,0)" xlink:href="#bw"/><use transform="matrix(0.05,0,0,0.05,20,0)" xlink:href="#by"/><use transform="matrix(0.05,0,0,0.05,25,0)" xlink:href="#br"/><use transform="matrix(0.05,0,0,0.05,28.950000000000003,0)" xlink:href="#bB"/><use transform="matrix(0.05,0,0,0.05,38.95,0)" xlink:href="#bs"/><use transform="matrix(0.05,0,0,0.05,48.95,0)" xlink:href="#bu"/><use transform="matrix(0.05,0,0,0.05,57.95,0)" xlink:href="#bC"/></g><path fill="#fff" d="M100-194c62-1 85 37 85 99 1 63-27 99-86 99S16-35 15-95c0-66 28-99 85-99zM99-20c44 1 53-31 53-75 0-43-8-75-51-75s-53 32-53 75 10 74 51 75" id="bD"/><path fill="#fff" d="M115-194c55 1 70 41 70 98S169 2 115 4C84 4 66-9 55-30l1 105H24l-1-265h31l2 30c10-21 28-34 59-34zm-8 174c40 0 45-34 45-75s-6-73-45-74c-42 0-51 32-51 76 0 43 10 73 51 73" id="bE"/><path fill="#fff" d="M59-47c-2 24 18 29 38 22v24C64 9 27 4 27-40v-127H5v-23h24l9-43h21v43h35v23H59v120" id="bF"/><path fill="#fff" d="M24-231v-30h32v30H24zM24 0v-190h32V0H24" id="bG"/><path fill="#fff" d="M117-194c89-4 53 116 60 194h-32v-121c0-31-8-49-39-48C34-167 62-67 57 0H25l-1-190h30c1 10-1 24 2 32 11-22 29-35 61-36" id="bH"/><path fill="#fff" d="M135-143c-3-34-86-38-87 0 15 53 115 12 119 90S17 21 10-45l28-5c4 36 97 45 98 0-10-56-113-15-118-90-4-57 82-63 122-42 12 7 21 19 24 35" id="bI"/><g id="d"><use transform="matrix(0.05,0,0,0.05,0,0)" xlink:href="#bD"/><use transform="matrix(0.05,0,0,0.05,10,0)" xlink:href="#bE"/><use transform="matrix(0.05,0,0,0.05,20,0)" xlink:href="#bF"/><use transform="matrix(0.05,0,0,0.05,25,0)" xlink:href="#bG"/><use transform="matrix(0.05,0,0,0.05,28.950000000000003,0)" xlink:href="#bD"/><use transform="matrix(0.05,0,0,0.05,38.95,0)" xlink:href="#bH"/><use transform="matrix(0.05,0,0,0.05,48.95,0)" xlink:href="#bI"/></g><path fill="#333" d="M127-220V0H93v-220H8v-28h204v28h-85" id="bJ"/><path fill="#333" d="M100-194c62-1 85 37 85 99 1 63-27 99-86 99S16-35 15-95c0-66 28-99 85-99zM99-20c44 1 53-31 53-75 0-43-8-75-51-75s-53 32-53 75 10 74 51 75" id="bK"/><path fill="#333" d="M59-47c-2 24 18 29 38 22v24C64 9 27 4 27-40v-127H5v-23h24l9-43h21v43h35v23H59v120" id="bL"/><path fill="#333" d="M141-36C126-15 110 5 73 4 37 3 15-17 15-53c-1-64 63-63 125-63 3-35-9-54-41-54-24 1-41 7-42 31l-33-3c5-37 33-52 76-52 45 0 72 20 72 64v82c-1 20 7 32 28 27v20c-31 9-61-2-59-35zM48-53c0 20 12 33 32 33 41-3 63-29 60-74-43 2-92-5-92 41" id="bM"/><path fill="#333" d="M24 0v-261h32V0H24" id="bN"/><path fill="#333" d="M33-154v-36h34v36H33zM33 0v-36h34V0H33" id="bO"/><g id="e"><use transform="matrix(0.05,0,0,0.05,0,0)" xlink:href="#bJ"/><use transform="matrix(0.05,0,0,0.05,8.950000000000001,0)" xlink:href="#bK"/><use transform="matrix(0.05,0,0,0.05,18.950000000000003,0)" xlink:href="#bL"/><use transform="matrix(0.05,0,0,0.05,23.950000000000003,0)" xlink:href="#bM"/><use transform="matrix(0.05,0,0,0.05,33.95,0)" xlink:href="#bN"/><use transform="matrix(0.05,0,0,0.05,37.900000000000006,0)" xlink:href="#bO"/></g><path fill="#333" d="M232-93c-1 65-40 97-104 97C67 4 28-28 28-90v-158h33c8 89-33 224 67 224 102 0 64-133 71-224h33v155" id="bP"/><path fill="#333" d="M117-194c89-4 53 116 60 194h-32v-121c0-31-8-49-39-48C34-167 62-67 57 0H25l-1-190h30c1 10-1 24 2 32 11-22 29-35 61-36" id="bQ"/><path fill="#333" d="M24-231v-30h32v30H24zM24 0v-190h32V0H24" id="bR"/><path fill="#333" d="M145-31C134-9 116 4 85 4 32 4 16-35 15-94c0-59 17-99 70-100 32-1 48 14 60 33 0-11-1-24 2-32h30l-1 268h-32zM93-21c41 0 51-33 51-76s-8-73-50-73c-40 0-46 35-46 75s5 74 45 74" id="bS"/><path fill="#333" d="M84 4C-5 8 30-112 23-190h32v120c0 31 7 50 39 49 72-2 45-101 50-169h31l1 190h-30c-1-10 1-25-2-33-11 22-28 36-60 37" id="bT"/><path fill="#333" d="M100-194c63 0 86 42 84 106H49c0 40 14 67 53 68 26 1 43-12 49-29l28 8c-11 28-37 45-77 45C44 4 14-33 15-96c1-61 26-98 85-98zm52 81c6-60-76-77-97-28-3 7-6 17-6 28h103" id="bU"/><g id="f"><use transform="matrix(0.05,0,0,0.05,0,0)" xlink:href="#bP"/><use transform="matrix(0.05,0,0,0.05,12.950000000000001,0)" xlink:href="#bQ"/><use transform="matrix(0.05,0,0,0.05,22.950000000000003,0)" xlink:href="#bR"/><use transform="matrix(0.05,0,0,0.05,26.900000000000002,0)" xlink:href="#bS"/><use transform="matrix(0.05,0,0,0.05,36.900000000000006,0)" xlink:href="#bT"/><use transform="matrix(0.05,0,0,0.05,46.900000000000006,0)" xlink:href="#bU"/><use transform="matrix(0.05,0,0,0.05,56.900000000000006,0)" xlink:href="#bO"/></g><path fill="#333" d="M160-131c35 5 61 23 61 61C221 17 115-2 30 0v-248c76 3 177-17 177 60 0 33-19 50-47 57zm-97-11c50-1 110 9 110-42 0-47-63-36-110-37v79zm0 115c55-2 124 14 124-45 0-56-70-42-124-44v89" id="bV"/><path fill="#333" d="M114-163C36-179 61-72 57 0H25l-1-190h30c1 12-1 29 2 39 6-27 23-49 58-41v29" id="bW"/><path fill="#333" d="M143 0L79-87 56-68V0H24v-261h32v163l83-92h37l-77 82L181 0h-38" id="bX"/><g id="g"><use transform="matrix(0.05,0,0,0.05,0,0)" xlink:href="#bV"/><use transform="matrix(0.05,0,0,0.05,12,0)" xlink:href="#bW"/><use transform="matrix(0.05,0,0,0.05,17.95,0)" xlink:href="#bK"/><use transform="matrix(0.05,0,0,0.05,27.950000000000003,0)" xlink:href="#bX"/><use transform="matrix(0.05,0,0,0.05,36.95,0)" xlink:href="#bU"/><use transform="matrix(0.05,0,0,0.05,46.95,0)" xlink:href="#bQ"/><use transform="matrix(0.05,0,0,0.05,56.95,0)" xlink:href="#bO"/></g><g id="h"><use transform="matrix(0.05,0,0,0.05,0,0)" xlink:href="#bJ"/><use transform="matrix(0.05,0,0,0.05,8.950000000000001,0)" xlink:href="#bK"/><use transform="matrix(0.05,0,0,0.05,18.950000000000003,0)" xlink:href="#bL"/><use transform="matrix(0.05,0,0,0.05,23.950000000000003,0)" xlink:href="#bM"/><use transform="matrix(0.05,0,0,0.05,33.95,0)" xlink:href="#bN"/><use transform="matrix(0.05,0,0,0.05,37.900000000000006,0)" xlink:href="#bO"/></g><g id="i"><use transform="matrix(0.05,0,0,0.05,0,0)" xlink:href="#bP"/><use transform="matrix(0.05,0,0,0.05,12.950000000000001,0)" xlink:href="#bQ"/><use transform="matrix(0.05,0,0,0.05,22.950000000000003,0)" xlink:href="#bR"/><use transform="matrix(0.05,0,0,0.05,26.900000000000002,0)" xlink:href="#bS"/><use transform="matrix(0.05,0,0,0.05,36.900000000000006,0)" xlink:href="#bT"/><use transform="matrix(0.05,0,0,0.05,46.900000000000006,0)" xlink:href="#bU"/><use transform="matrix(0.05,0,0,0.05,56.900000000000006,0)" xlink:href="#bO"/></g><path fill="#fff" d="M187 0l-14-72H61L19 0h-37l149-248h38L221 0h-34zm-19-99l-22-123L76-99h92" id="bY"/><path fill="#fff" d="M238-179c0 84-86 86-175 82L45 0H11l48-248c82 0 179-12 179 69zm-34 1c0-53-64-42-116-43l-19 98c63 0 135 9 135-55" id="bZ"/><g id="j"><use transform="matrix(0.05,0,0,0.05,0,0)" xlink:href="#bY"/><use transform="matrix(0.05,0,0,0.05,12,0)" xlink:href="#bZ"/><use transform="matrix(0.05,0,0,0.05,24,0)" xlink:href="#bm"/><use transform="matrix(0.05,0,0,0.05,29,0)" xlink:href="#bn"/></g><path fill="#fff" d="M233-177c-1 41-23 64-60 70L243 0h-38l-65-103H63V0H30v-248c88 3 205-21 203 71zM63-129c60-2 137 13 137-47 0-61-80-42-137-45v92" id="ca"/><path fill="#fff" d="M84 4C-5 8 30-112 23-190h32v120c0 31 7 50 39 49 72-2 45-101 50-169h31l1 190h-30c-1-10 1-25-2-33-11 22-28 36-60 37" id="cb"/><path fill="#fff" d="M141-36C126-15 110 5 73 4 37 3 15-17 15-53c-1-64 63-63 125-63 3-35-9-54-41-54-24 1-41 7-42 31l-33-3c5-37 33-52 76-52 45 0 72 20 72 64v82c-1 20 7 32 28 27v20c-31 9-61-2-59-35zM48-53c0 20 12 33 32 33 41-3 63-29 60-74-43 2-92-5-92 41" id="cc"/><g id="k"><use transform="matrix(0.05,0,0,0.05,0,0)" xlink:href="#ca"/><use transform="matrix(0.05,0,0,0.05,12.950000000000001,0)" xlink:href="#cb"/><use transform="matrix(0.05,0,0,0.05,22.950000000000003,0)" xlink:href="#bF"/><use transform="matrix(0.05,0,0,0.05,27.950000000000003,0)" xlink:href="#cc"/></g><path fill="#fff" d="M85-194c31 0 48 13 60 33l-1-100h32l1 261h-30c-2-10 0-23-3-31C134-8 116 4 85 4 32 4 16-35 15-94c0-66 23-100 70-100zm9 24c-40 0-46 34-46 75 0 40 6 74 45 74 42 0 51-32 51-76 0-42-9-74-50-73" id="cd"/><path fill="#fff" d="M100-194c63 0 86 42 84 106H49c0 40 14 67 53 68 26 1 43-12 49-29l28 8c-11 28-37 45-77 45C44 4 14-33 15-96c1-61 26-98 85-98zm52 81c6-60-76-77-97-28-3 7-6 17-6 28h103" id="ce"/><g id="l"><use transform="matrix(0.05,0,0,0.05,0,0)" xlink:href="#cd"/><use transform="matrix(0.05,0,0,0.05,10,0)" xlink:href="#ce"/></g><path fill="#fff" d="M114-163C36-179 61-72 57 0H25l-1-190h30c1 12-1 29 2 39 6-27 23-49 58-41v29" id="cf"/><path fill="#fff" d="M96-169c-40 0-48 33-48 73s9 75 48 75c24 0 41-14 43-38l32 2c-6 37-31 61-74 61-59 0-76-41-82-99-10-93 101-131 147-64 4 7 5 14 7 22l-32 3c-4-21-16-35-41-35" id="cg"/><path fill="#fff" d="M106-169C34-169 62-67 57 0H25v-261h32l-1 103c12-21 28-36 61-36 89 0 53 116 60 194h-32v-121c2-32-8-49-39-48" id="ch"/><path fill="#fff" d="M108 0H70L1-190h34L89-25l56-165h34" id="ci"/><g id="m"><use transform="matrix(0.05,0,0,0.05,0,0)" xlink:href="#cc"/><use transform="matrix(0.05,0,0,0.05,10,0)" xlink:href="#cf"/><use transform="matrix(0.05,0,0,0.05,15.949999999999998,0)" xlink:href="#cg"/><use transform="matrix(0.05,0,0,0.05,24.95,0)" xlink:href="#ch"/><use transform="matrix(0.05,0,0,0.05,34.95,0)" xlink:href="#bG"/><use transform="matrix(0.05,0,0,0.05,38.900000000000006,0)" xlink:href="#ci"/><use transform="matrix(0.05,0,0,0.05,47.900000000000006,0)" xlink:href="#bD"/></g><path fill="#333" d="M177-190C167-65 218 103 67 71c-23-6-38-20-44-43l32-5c15 47 100 32 89-28v-30C133-14 115 1 83 1 29 1 15-40 15-95c0-56 16-97 71-98 29-1 48 16 59 35 1-10 0-23 2-32h30zM94-22c36 0 50-32 50-73 0-42-14-75-50-75-39 0-46 34-46 75s6 73 46 73" id="cj"/><g id="n"><use transform="matrix(0.05,0,0,0.05,0,0)" xlink:href="#bQ"/><use transform="matrix(0.05,0,0,0.05,10,0)" xlink:href="#bR"/><use transform="matrix(0.05,0,0,0.05,13.949999999999998,0)" xlink:href="#bQ"/><use transform="matrix(0.05,0,0,0.05,23.95,0)" xlink:href="#cj"/><use transform="matrix(0.05,0,0,0.05,33.95,0)" xlink:href="#bT"/><use transform="matrix(0.05,0,0,0.05,43.95,0)" xlink:href="#bQ"/><use transform="matrix(0.05,0,0,0.05,53.95,0)" xlink:href="#bM"/></g><path fill="#333" d="M26 75v-336h71v23H56V52h41v23H26" id="ck"/><path fill="#333" d="M39-94c74 12-11 154 75 146v23c-44 4-70-10-70-52C44-23 55-84 6-82v-22c81 4-7-162 84-157h24v23c-82-15-2 131-75 144" id="cl"/><path fill="#333" d="M106-169C34-169 62-67 57 0H25v-261h32l-1 103c12-21 28-36 61-36 89 0 53 116 60 194h-32v-121c2-32-8-49-39-48" id="cm"/><path fill="#333" d="M101-234c-31-9-42 10-38 44h38v23H63V0H32v-167H5v-23h27c-7-52 17-82 69-68v24" id="cn"/><path fill="#333" d="M68-38c1 34 0 65-14 84H32c9-13 17-26 17-46H33v-38h35" id="co"/><g id="o"><use transform="matrix(0.05,0,0,0.05,0,0)" xlink:href="#ck"/><use transform="matrix(0.05,0,0,0.05,5,0)" xlink:href="#cl"/><use transform="matrix(0.05,0,0,0.05,11,0)" xlink:href="#cm"/><use transform="matrix(0.05,0,0,0.05,21,0)" xlink:href="#bW"/><use transform="matrix(0.05,0,0,0.05,26.950000000000003,0)" xlink:href="#bU"/><use transform="matrix(0.05,0,0,0.05,36.95,0)" xlink:href="#cn"/><use transform="matrix(0.05,0,0,0.05,41.95,0)" xlink:href="#co"/></g><path fill="#333" d="M141 0L90-78 38 0H4l68-98-65-92h35l48 74 47-74h35l-64 92 68 98h-35" id="cp"/><g id="p"><use transform="matrix(0.05,0,0,0.05,0,0)" xlink:href="#bL"/><use transform="matrix(0.05,0,0,0.05,5,0)" xlink:href="#bU"/><use transform="matrix(0.05,0,0,0.05,15,0)" xlink:href="#cp"/><use transform="matrix(0.05,0,0,0.05,24,0)" xlink:href="#bL"/><use transform="matrix(0.05,0,0,0.05,29,0)" xlink:href="#co"/></g><path fill="#333" d="M76-40C78 24 84 88 6 75V52C86 64 9-79 80-94c-40-6-34-59-34-106 1-29-11-41-40-38v-23c44-4 70 10 70 52 0 47-12 108 38 105v22c-26 1-39 14-38 42" id="cq"/><g id="q"><use transform="matrix(0.05,0,0,0.05,0,0)" xlink:href="#cn"/><use transform="matrix(0.05,0,0,0.05,5,0)" xlink:href="#bR"/><use transform="matrix(0.05,0,0,0.05,8.95,0)" xlink:href="#bN"/><use transform="matrix(0.05,0,0,0.05,12.899999999999999,0)" xlink:href="#bU"/><use transform="matrix(0.05,0,0,0.05,22.9,0)" xlink:href="#cq"/><use transform="matrix(0.05,0,0,0.05,28.899999999999995,0)" xlink:href="#co"/></g><path fill="#333" d="M33 0v-38h34V0H33" id="cr"/><path fill="#333" d="M3 75V52h41v-290H3v-23h71V75H3" id="cs"/><g id="r"><use transform="matrix(0.05,0,0,0.05,0,0)" xlink:href="#cr"/><use transform="matrix(0.05,0,0,0.05,5,0)" xlink:href="#cr"/><use transform="matrix(0.05,0,0,0.05,10,0)" xlink:href="#cr"/><use transform="matrix(0.05,0,0,0.05,15,0)" xlink:href="#cs"/></g><path fill="#333" d="M496 0v-299h235V0H496" id="ct"/><path fill="#333" d="M114 20l821-1504h178L296 20H114" id="cu"/><path fill="#333" d="M873-819c-18-114-119-146-250-146-163 0-245 50-245 151 0 151 170 148 294 185 182 54 388 94 388 320 0 240-189 325-439 329-245 4-410-69-454-268l159-31c24 133 136 168 295 165 144-2 270-31 270-171 0-164-195-160-331-202-167-52-350-87-350-299 0-218 173-315 413-313 220 2 373 77 412 260" id="cv"/><path fill="#333" d="M615-1102c343 0 484 203 482 560-1 347-147 562-488 562-336 0-475-219-479-562-4-349 156-560 485-560zm-8 989c240 0 301-180 301-429 0-245-55-427-290-427-236 0-299 181-299 427 0 243 61 429 288 429" id="cw"/><path fill="#333" d="M904-1102c199 0 220 177 220 381V0H956v-686c-3-114 0-215-60-264-70-33-125-4-158 71-26 56-39 140-39 252V0H531v-686c-3-114-1-215-61-264-78-41-136 24-157 84-24 69-39 159-39 259V0H105c-3-360 6-732-6-1082h149c6 50 3 123 8 175 36-100 83-195 216-195 135 0 166 79 196 196 42-105 93-196 236-196" id="cx"/><path fill="#333" d="M617-1102c355 0 481 238 477 599H322c5 222 84 388 301 388 144 0 244-59 284-166l158 45C1002-72 854 20 623 20c-342 0-490-220-490-568 0-346 151-554 484-554zm291 461c-18-192-90-328-289-328-194 0-287 128-295 328h584" id="cy"/><path fill="#333" d="M932 0L611-444 288 0H94l415-556-397-526h199l300 421 298-421h201L713-558 1133 0H932" id="cz"/><path fill="#333" d="M1000-272c3 95 12 159 101 161 21 0 41-3 59-7V-6c-44 10-86 16-139 16-141 2-191-84-197-217h-6C748-76 648 20 446 20c-207 0-318-120-318-322 0-266 194-348 454-354l236-4c12-191-40-305-222-305-140 0-220 47-232 172l-188-17c33-204 181-292 423-292 255 0 401 118 401 364v466zm-683-27c0 109 63 184 175 182 166-3 259-96 306-217 24-65 20-120 20-200-232 7-501-28-501 235" id="cA"/><path fill="#333" d="M698-1104c312 3 392 244 392 558 0 315-82 566-392 566-169 0-277-65-331-184h-5c8 188 2 394 4 589H185V-858c0-76-1-156-6-224h175c6 52 9 120 10 178h4c58-122 150-202 330-200zm-49 991c225 0 255-203 255-433 0-225-32-419-253-419-236 0-285 192-285 441 0 237 53 411 283 411" id="cB"/><path fill="#333" d="M736-142h380V0H134v-142h422v-1200H267v-142h469v1342" id="cC"/><path fill="#333" d="M865-914c-3-187-2-380-2-570h180v1261c0 76 1 155 6 223H877c-8-49-9-116-10-174h-5C801-44 708 26 530 26c-135 0-234-46-297-139s-95-232-95-419c0-377 131-566 392-566 176 0 271 63 335 184zm-286-51c-222 0-255 197-255 427 0 229 31 425 253 425 237 0 286-195 286-441 0-238-52-411-284-411" id="cD"/><g id="s"><use transform="matrix(0.008854166666666666,0,0,0.008854166666666666,0,0)" xlink:href="#ct"/><use transform="matrix(0.008854166666666666,0,0,0.008854166666666666,10.881770833333333,0)" xlink:href="#cu"/><use transform="matrix(0.008854166666666666,0,0,0.008854166666666666,21.763541666666665,0)" xlink:href="#cv"/><use transform="matrix(0.008854166666666666,0,0,0.008854166666666666,32.645312499999996,0)" xlink:href="#cw"/><use transform="matrix(0.008854166666666666,0,0,0.008854166666666666,43.52708333333333,0)" xlink:href="#cx"/><use transform="matrix(0.008854166666666666,0,0,0.008854166666666666,54.408854166666664,0)" xlink:href="#cy"/><use transform="matrix(0.008854166666666666,0,0,0.008854166666666666,65.29062499999999,0)" xlink:href="#cu"/><use transform="matrix(0.008854166666666666,0,0,0.008854166666666666,76.17239583333333,0)" xlink:href="#cy"/><use transform="matrix(0.008854166666666666,0,0,0.008854166666666666,87.05416666666666,0)" xlink:href="#cz"/><use transform="matrix(0.008854166666666666,0,0,0.008854166666666666,97.9359375,0)" xlink:href="#cA"/><use transform="matrix(0.008854166666666666,0,0,0.008854166666666666,108.81770833333333,0)" xlink:href="#cx"/><use transform="matrix(0.008854166666666666,0,0,0.008854166666666666,119.69947916666666,0)" xlink:href="#cB"/><use transform="matrix(0.008854166666666666,0,0,0.008854166666666666,130.58124999999998,0)" xlink:href="#cC"/><use transform="matrix(0.008854166666666666,0,0,0.008854166666666666,141.4630208333333,0)" xlink:href="#cy"/><use transform="matrix(0.008854166666666666,0,0,0.008854166666666666,152.34479166666662,0)" xlink:href="#ct"/><use transform="matrix(0.008854166666666666,0,0,0.008854166666666666,163.22656249999994,0)" xlink:href="#cx"/><use transform="matrix(0.008854166666666666,0,0,0.008854166666666666,174.10833333333326,0)" xlink:href="#cD"/></g><path fill="#333" d="M648-963c-190 6-283 138-283 336V0H185v-1484h181c-2 197 6 404-9 587h3c62-120 159-205 339-205 242 0 351 135 350 381V0H868v-695c1-168-57-273-220-268" id="cE"/><path fill="#333" d="M682 16c-209 0-323-80-324-285v-671H190v-142h170l58-282h120v282h432v142H538v652c2 114 60 155 182 155 106 0 209-16 297-34v137C921-4 806 16 682 16" id="cF"/><path fill="#333" d="M496 0v-299h235V0H496zm0-783v-299h235v299H496" id="cG"/><path fill="#333" d="M1048-32c-2 300-135 456-433 456-222-1-358-88-400-267l184-25c22 99 100 157 222 156 184-2 248-125 248-315 0-64 3-133-2-194C807-100 706-13 524-12c-306 0-381-228-381-537 0-318 85-550 400-550 164 0 271 83 325 202h3c1-60 3-134 12-185h171c-13 339-4 702-6 1050zM585-145c210-8 284-178 284-406 0-192-52-331-177-392-33-16-69-22-104-22-223 2-259 184-259 414 0 229 31 415 256 406" id="cH"/><path fill="#333" d="M631 20c-350 0-501-215-501-562 0-355 162-560 502-560 250 0 399 118 446 323l-192 14c-23-124-109-196-262-196-242 0-305 171-305 415 1 245 61 427 304 427 151 0 248-77 267-215l190 12C1039-107 883 20 631 20" id="cI"/><path fill="#333" d="M611-1370c266 0 451 106 451 368 0 147-77 243-154 327-132 144-316 255-451 395-42 44-75 87-96 134h723V0H144v-117c124-264 387-411 582-603 73-72 151-147 151-271 0-161-104-231-266-231-163 0-249 90-268 238l-184-17c35-233 185-369 452-369" id="cJ"/><path fill="#333" d="M1060-1016c0 191-128 285-295 323v4c154 18 262 91 313 209 14 35 21 72 21 110 0 277-194 390-478 390-292 0-457-129-493-382l186-17c24 161 121 250 307 250 172 1 298-80 291-247-8-208-220-239-446-233v-156c217 9 409-34 409-232 0-152-102-225-264-225-159 0-264 88-278 233l-181-14c33-239 196-367 461-367 264 0 447 102 447 354" id="cK"/><g id="t"><use transform="matrix(0.008854166666666666,0,0,0.008854166666666666,0,0)" xlink:href="#cE"/><use transform="matrix(0.008854166666666666,0,0,0.008854166666666666,10.881770833333333,0)" xlink:href="#cF"/><use transform="matrix(0.008854166666666666,0,0,0.008854166666666666,21.763541666666665,0)" xlink:href="#cF"/><use transform="matrix(0.008854166666666666,0,0,0.008854166666666666,32.645312499999996,0)" xlink:href="#cB"/><use transform="matrix(0.008854166666666666,0,0,0.008854166666666666,43.52708333333333,0)" xlink:href="#cG"/><use transform="matrix(0.008854166666666666,0,0,0.008854166666666666,54.408854166666664,0)" xlink:href="#cu"/><use transform="matrix(0.008854166666666666,0,0,0.008854166666666666,65.29062499999999,0)" xlink:href="#cu"/><use transform="matrix(0.008854166666666666,0,0,0.008854166666666666,76.17239583333333,0)" xlink:href="#cA"/><use transform="matrix(0.008854166666666666,0,0,0.008854166666666666,87.05416666666666,0)" xlink:href="#cC"/><use transform="matrix(0.008854166666666666,0,0,0.008854166666666666,97.9359375,0)" xlink:href="#cH"/><use transform="matrix(0.008854166666666666,0,0,0.008854166666666666,108.81770833333333,0)" xlink:href="#cw"/><use transform="matrix(0.008854166666666666,0,0,0.008854166666666666,119.69947916666666,0)" xlink:href="#ct"/><use transform="matrix(0.008854166666666666,0,0,0.008854166666666666,130.58124999999998,0)" xlink:href="#cI"/><use transform="matrix(0.008854166666666666,0,0,0.008854166666666666,141.4630208333333,0)" xlink:href="#cw"/><use transform="matrix(0.008854166666666666,0,0,0.008854166666666666,152.34479166666662,0)" xlink:href="#cx"/><use transform="matrix(0.008854166666666666,0,0,0.008854166666666666,163.22656249999994,0)" xlink:href="#cu"/><use transform="matrix(0.008854166666666666,0,0,0.008854166666666666,174.10833333333326,0)" xlink:href="#cJ"/><use transform="matrix(0.008854166666666666,0,0,0.008854166666666666,184.99010416666658,0)" xlink:href="#cu"/><use transform="matrix(0.008854166666666666,0,0,0.008854166666666666,195.8718749999999,0)" xlink:href="#cK"/><use transform="matrix(0.008854166666666666,0,0,0.008854166666666666,206.75364583333322,0)" xlink:href="#cu"/></g><path fill="#333" d="M237 0v-1349h191v1193h672V0H237" id="cL"/><path fill="#333" d="M745-142h380V0H143v-142h422v-798H246v-142h499v940zM545-1292v-192h200v192H545" id="cM"/><path fill="#333" d="M706-1102c241 0 344 136 343 381V0H868v-695c1-168-57-273-220-268-190 6-283 138-283 336V0H185c-3-360 6-732-6-1082h170c4 54 7 126 8 185h3c63-121 164-204 346-205" id="cN"/><path fill="#333" d="M914 0L548-499l-132 98V0H236v-1484h180v927l475-525h211L663-617 1125 0H914" id="cO"/><g id="u"><use transform="matrix(0.008854166666666666,0,0,0.008854166666666666,0,0)" xlink:href="#cL"/><use transform="matrix(0.008854166666666666,0,0,0.008854166666666666,10.881770833333333,0)" xlink:href="#cM"/><use transform="matrix(0.008854166666666666,0,0,0.008854166666666666,21.763541666666665,0)" xlink:href="#cN"/><use transform="matrix(0.008854166666666666,0,0,0.008854166666666666,32.645312499999996,0)" xlink:href="#cO"/></g><use transform="matrix(0.008854166666666666,0,0,0.008854166666666666,0,0)" xlink:href="#cA" id="v"/><g id="w"><use transform="matrix(0.008854166666666666,0,0,0.008854166666666666,0,0)" xlink:href="#cA"/><use transform="matrix(0.008854166666666666,0,0,0.008854166666666666,10.881770833333333,0)" xlink:href="#cC"/><use transform="matrix(0.008854166666666666,0,0,0.008854166666666666,21.763541666666665,0)" xlink:href="#cH"/><use transform="matrix(0.008854166666666666,0,0,0.008854166666666666,32.645312499999996,0)" xlink:href="#cw"/></g><path fill="#333" d="M108 0H70L1-190h34L89-25l56-165h34" id="cP"/><path fill="#333" d="M85-194c31 0 48 13 60 33l-1-100h32l1 261h-30c-2-10 0-23-3-31C134-8 116 4 85 4 32 4 16-35 15-94c0-66 23-100 70-100zm9 24c-40 0-46 34-46 75 0 40 6 74 45 74 42 0 51-32 51-76 0-42-9-74-50-73" id="cQ"/><g id="x"><use transform="matrix(0.05,0,0,0.05,0,0)" xlink:href="#cP"/><use transform="matrix(0.05,0,0,0.05,9,0)" xlink:href="#bM"/><use transform="matrix(0.05,0,0,0.05,19,0)" xlink:href="#bN"/><use transform="matrix(0.05,0,0,0.05,22.95,0)" xlink:href="#bR"/><use transform="matrix(0.05,0,0,0.05,26.899999999999995,0)" xlink:href="#cQ"/><use transform="matrix(0.05,0,0,0.05,36.9,0)" xlink:href="#bM"/><use transform="matrix(0.05,0,0,0.05,46.9,0)" xlink:href="#bL"/><use transform="matrix(0.05,0,0,0.05,51.900000000000006,0)" xlink:href="#bU"/></g><g id="y"><use transform="matrix(0.05,0,0,0.05,0,0)" xlink:href="#ck"/><use transform="matrix(0.05,0,0,0.05,5,0)" xlink:href="#cl"/><use transform="matrix(0.05,0,0,0.05,11,0)" xlink:href="#cm"/><use transform="matrix(0.05,0,0,0.05,21,0)" xlink:href="#bW"/><use transform="matrix(0.05,0,0,0.05,26.950000000000003,0)" xlink:href="#bU"/><use transform="matrix(0.05,0,0,0.05,36.95,0)" xlink:href="#cn"/><use transform="matrix(0.05,0,0,0.05,41.95,0)" xlink:href="#co"/></g><g id="z"><use transform="matrix(0.05,0,0,0.05,0,0)" xlink:href="#bL"/><use transform="matrix(0.05,0,0,0.05,5,0)" xlink:href="#bU"/><use transform="matrix(0.05,0,0,0.05,15,0)" xlink:href="#cp"/><use transform="matrix(0.05,0,0,0.05,24,0)" xlink:href="#bL"/><use transform="matrix(0.05,0,0,0.05,29,0)" xlink:href="#co"/></g><g id="A"><use transform="matrix(0.05,0,0,0.05,0,0)" xlink:href="#cn"/><use transform="matrix(0.05,0,0,0.05,5,0)" xlink:href="#bR"/><use transform="matrix(0.05,0,0,0.05,8.95,0)" xlink:href="#bN"/><use transform="matrix(0.05,0,0,0.05,12.899999999999999,0)" xlink:href="#bU"/><use transform="matrix(0.05,0,0,0.05,22.9,0)" xlink:href="#co"/></g><path fill="#333" d="M135-143c-3-34-86-38-87 0 15 53 115 12 119 90S17 21 10-45l28-5c4 36 97 45 98 0-10-56-113-15-118-90-4-57 82-63 122-42 12 7 21 19 24 35" id="cR"/><g id="B"><use transform="matrix(0.05,0,0,0.05,0,0)" xlink:href="#cR"/><use transform="matrix(0.05,0,0,0.05,9,0)" xlink:href="#bL"/><use transform="matrix(0.05,0,0,0.05,14,0)" xlink:href="#bM"/><use transform="matrix(0.05,0,0,0.05,24,0)" xlink:href="#bL"/><use transform="matrix(0.05,0,0,0.05,29,0)" xlink:href="#bT"/><use transform="matrix(0.05,0,0,0.05,39,0)" xlink:href="#cR"/><use transform="matrix(0.05,0,0,0.05,48,0)" xlink:href="#co"/><use transform="matrix(0.05,0,0,0.05,53,0)" xlink:href="#bK"/><use transform="matrix(0.05,0,0,0.05,63,0)" xlink:href="#bX"/><use transform="matrix(0.05,0,0,0.05,72,0)" xlink:href="#cq"/><use transform="matrix(0.05,0,0,0.05,78,0)" xlink:href="#co"/><use transform="matrix(0.05,0,0,0.05,83,0)" xlink:href="#cr"/><use transform="matrix(0.05,0,0,0.05,88,0)" xlink:href="#cr"/><use transform="matrix(0.05,0,0,0.05,93,0)" xlink:href="#cr"/><use transform="matrix(0.05,0,0,0.05,98,0)" xlink:href="#cs"/></g><g id="C"><use transform="matrix(0.008854166666666666,0,0,0.008854166666666666,0,0)" xlink:href="#cw"/><use transform="matrix(0.008854166666666666,0,0,0.008854166666666666,10.881770833333333,0)" xlink:href="#cO"/></g><path fill="#333" d="M1065-1013c47 164 49 500-1 665C999-130 875 20 611 20c-377 0-484-300-487-695-2-245 41-425 141-551 77-98 191-144 352-144 261 0 386 140 448 357zM741-155c199-92 203-504 159-785-26-168-96-284-283-284-281 0-308 256-311 549-2 181 18 324 80 428 46 77 115 118 227 120 47 0 90-10 128-28" id="cS"/><g id="D"><use transform="matrix(0.008854166666666666,0,0,0.008854166666666666,0,0)" xlink:href="#cJ"/><use transform="matrix(0.008854166666666666,0,0,0.008854166666666666,10.881770833333333,0)" xlink:href="#cS"/><use transform="matrix(0.008854166666666666,0,0,0.008854166666666666,21.763541666666665,0)" xlink:href="#cS"/></g><g id="E"><use transform="matrix(0.008854166666666666,0,0,0.008854166666666666,0,0)" xlink:href="#cA"/><use transform="matrix(0.008854166666666666,0,0,0.008854166666666666,10.881770833333333,0)" xlink:href="#cC"/><use transform="matrix(0.008854166666666666,0,0,0.008854166666666666,21.763541666666665,0)" xlink:href="#cH"/><use transform="matrix(0.008854166666666666,0,0,0.008854166666666666,32.645312499999996,0)" xlink:href="#cw"/></g><g id="F"><use transform="matrix(0.05,0,0,0.05,0,0)" xlink:href="#cR"/><use transform="matrix(0.05,0,0,0.05,9,0)" xlink:href="#bL"/><use transform="matrix(0.05,0,0,0.05,14,0)" xlink:href="#bM"/><use transform="matrix(0.05,0,0,0.05,24,0)" xlink:href="#bL"/><use transform="matrix(0.05,0,0,0.05,29,0)" xlink:href="#cR"/></g><g id="G"><use transform="matrix(0.05,0,0,0.05,0,0)" xlink:href="#cP"/><use transform="matrix(0.05,0,0,0.05,9,0)" xlink:href="#bM"/><use transform="matrix(0.05,0,0,0.05,19,0)" xlink:href="#bN"/><use transform="matrix(0.05,0,0,0.05,22.95,0)" xlink:href="#bR"/><use transform="matrix(0.05,0,0,0.05,26.899999999999995,0)" xlink:href="#cQ"/><use transform="matrix(0.05,0,0,0.05,36.9,0)" xlink:href="#bM"/><use transform="matrix(0.05,0,0,0.05,46.9,0)" xlink:href="#bL"/><use transform="matrix(0.05,0,0,0.05,51.900000000000006,0)" xlink:href="#bU"/></g><g id="H"><use transform="matrix(0.05,0,0,0.05,0,0)" xlink:href="#cR"/><use transform="matrix(0.05,0,0,0.05,9,0)" xlink:href="#bL"/><use transform="matrix(0.05,0,0,0.05,14,0)" xlink:href="#bM"/><use transform="matrix(0.05,0,0,0.05,24,0)" xlink:href="#bL"/><use transform="matrix(0.05,0,0,0.05,29,0)" xlink:href="#cR"/></g><path fill="#fff" d="M107 61C57 61 25 39 23-9c-2-65 71-58 78-115h30c1 64-76 54-76 114 0 30 21 42 52 43 32 0 53-17 56-46l32 2c-6 46-36 72-88 72zm26-251v35H99v-35h34" id="cT"/><path fill="#fff" d="M30 0v-248h187v28H63v79h144v27H63v87h162V0H30" id="cU"/><g id="I"><use transform="matrix(0.05,0,0,0.05,0,0)" xlink:href="#cT"/><use transform="matrix(0.05,0,0,0.05,10.950000000000001,0)" xlink:href="#cU"/><use transform="matrix(0.05,0,0,0.05,22.950000000000003,0)" xlink:href="#bI"/></g><path fill="#fff" d="M115-194c53 0 69 39 70 98 0 66-23 100-70 100C84 3 66-7 56-30L54 0H23l1-261h32v101c10-23 28-34 59-34zm-8 174c40 0 45-34 45-75 0-40-5-75-45-74-42 0-51 32-51 76 0 43 10 73 51 73" id="cV"/><path fill="#fff" d="M24 0v-261h32V0H24" id="cW"/><path fill="#fff" d="M103-251c84 0 111 97 45 133-19 10-37 24-39 52H78c0-63 77-55 77-114 0-30-21-42-52-43-32 0-53 17-56 46l-32-2c7-45 34-72 88-72zM77 0v-35h34V0H77" id="cX"/><g id="J"><use transform="matrix(0.05,0,0,0.05,0,0)" xlink:href="#cc"/><use transform="matrix(0.05,0,0,0.05,10,0)" xlink:href="#cV"/><use transform="matrix(0.05,0,0,0.05,20,0)" xlink:href="#bI"/><use transform="matrix(0.05,0,0,0.05,29,0)" xlink:href="#bD"/><use transform="matrix(0.05,0,0,0.05,39,0)" xlink:href="#cW"/><use transform="matrix(0.05,0,0,0.05,42.95,0)" xlink:href="#cb"/><use transform="matrix(0.05,0,0,0.05,52.95,0)" xlink:href="#bF"/><use transform="matrix(0.05,0,0,0.05,57.95,0)" xlink:href="#cc"/><use transform="matrix(0.05,0,0,0.05,67.95,0)" xlink:href="#cX"/></g><path fill="#333" d="M185-189c-5-48-123-54-124 2 14 75 158 14 163 119 3 78-121 87-175 55-17-10-28-26-33-46l33-7c5 56 141 63 141-1 0-78-155-14-162-118-5-82 145-84 179-34 5 7 8 16 11 25" id="cY"/><path fill="#333" d="M34 0v-190h32V0H34zM24-211c8-23 27-35 38-54h36v5l-58 49H24" id="cZ"/><g id="K"><use transform="matrix(0.05,0,0,0.05,0,0)" xlink:href="#cY"/><use transform="matrix(0.05,0,0,0.05,12,0)" xlink:href="#cZ"/></g><g id="L"><use transform="matrix(0.05,0,0,0.05,0,0)" xlink:href="#bQ"/><use transform="matrix(0.05,0,0,0.05,10,0)" xlink:href="#bK"/></g><g id="M"><use transform="matrix(0.05,0,0,0.05,0,0)" xlink:href="#ca"/><use transform="matrix(0.05,0,0,0.05,12.950000000000001,0)" xlink:href="#ce"/><use transform="matrix(0.05,0,0,0.05,22.950000000000003,0)" xlink:href="#bI"/><use transform="matrix(0.05,0,0,0.05,31.950000000000003,0)" xlink:href="#bD"/><use transform="matrix(0.05,0,0,0.05,41.95,0)" xlink:href="#cW"/><use transform="matrix(0.05,0,0,0.05,45.900000000000006,0)" xlink:href="#ci"/><use transform="matrix(0.05,0,0,0.05,54.900000000000006,0)" xlink:href="#ce"/><use transform="matrix(0.05,0,0,0.05,64.9,0)" xlink:href="#cf"/></g><g id="N"><use transform="matrix(0.05,0,0,0.05,0,0)" xlink:href="#cf"/><use transform="matrix(0.05,0,0,0.05,5.95,0)" xlink:href="#cb"/><use transform="matrix(0.05,0,0,0.05,15.949999999999998,0)" xlink:href="#bF"/><use transform="matrix(0.05,0,0,0.05,20.95,0)" xlink:href="#cc"/></g><g id="O"><use transform="matrix(0.05,0,0,0.05,0,0)" xlink:href="#cT"/><use transform="matrix(0.05,0,0,0.05,10.950000000000001,0)" xlink:href="#cW"/><use transform="matrix(0.05,0,0,0.05,14.9,0)" xlink:href="#cc"/></g><g id="P"><use transform="matrix(0.05,0,0,0.05,0,0)" xlink:href="#cf"/><use transform="matrix(0.05,0,0,0.05,5.95,0)" xlink:href="#cb"/><use transform="matrix(0.05,0,0,0.05,15.949999999999998,0)" xlink:href="#bF"/><use transform="matrix(0.05,0,0,0.05,20.95,0)" xlink:href="#cc"/></g><g id="Q"><use transform="matrix(0.05,0,0,0.05,0,0)" xlink:href="#ce"/><use transform="matrix(0.05,0,0,0.05,10,0)" xlink:href="#bI"/></g><path fill="#fff" d="M141-36C126-15 110 5 73 4 37 3 15-17 15-53c-1-64 63-63 125-63 3-35-9-54-41-54-24 1-41 7-42 31l-33-3c5-37 33-52 76-52 45 0 72 20 72 64v82c-1 20 7 32 28 27v20c-31 9-61-2-59-35zM48-53c0 20 12 33 32 33 41-3 63-29 60-74-43 2-92-5-92 41zm25-158c8-23 27-35 38-54h36v5l-58 49H73" id="da"/><g id="R"><use transform="matrix(0.05,0,0,0.05,0,0)" xlink:href="#ci"/><use transform="matrix(0.05,0,0,0.05,9,0)" xlink:href="#da"/><use transform="matrix(0.05,0,0,0.05,19,0)" xlink:href="#cW"/><use transform="matrix(0.05,0,0,0.05,22.95,0)" xlink:href="#bG"/><use transform="matrix(0.05,0,0,0.05,26.899999999999995,0)" xlink:href="#cd"/><use transform="matrix(0.05,0,0,0.05,36.9,0)" xlink:href="#cc"/><use transform="matrix(0.05,0,0,0.05,46.9,0)" xlink:href="#cX"/></g><g id="S"><use transform="matrix(0.05,0,0,0.05,0,0)" xlink:href="#cb"/><use transform="matrix(0.05,0,0,0.05,10,0)" xlink:href="#bH"/></g><g id="T"><use transform="matrix(0.05,0,0,0.05,0,0)" xlink:href="#cd"/><use transform="matrix(0.05,0,0,0.05,10,0)" xlink:href="#bG"/><use transform="matrix(0.05,0,0,0.05,13.949999999999998,0)" xlink:href="#cf"/><use transform="matrix(0.05,0,0,0.05,19.9,0)" xlink:href="#ce"/><use transform="matrix(0.05,0,0,0.05,29.899999999999995,0)" xlink:href="#cg"/><use transform="matrix(0.05,0,0,0.05,38.9,0)" xlink:href="#bF"/><use transform="matrix(0.05,0,0,0.05,43.9,0)" xlink:href="#bD"/><use transform="matrix(0.05,0,0,0.05,53.900000000000006,0)" xlink:href="#cf"/><use transform="matrix(0.05,0,0,0.05,59.85,0)" xlink:href="#bG"/><use transform="matrix(0.05,0,0,0.05,63.800000000000004,0)" xlink:href="#bD"/><use transform="matrix(0.05,0,0,0.05,73.80000000000001,0)" xlink:href="#cX"/></g><g id="U"><use transform="matrix(0.05,0,0,0.05,0,0)" xlink:href="#bH"/><use transform="matrix(0.05,0,0,0.05,10,0)" xlink:href="#bD"/></g><g id="V"><use transform="matrix(0.05,0,0,0.05,0,0)" xlink:href="#ci"/><use transform="matrix(0.05,0,0,0.05,9,0)" xlink:href="#da"/><use transform="matrix(0.05,0,0,0.05,19,0)" xlink:href="#cW"/><use transform="matrix(0.05,0,0,0.05,22.95,0)" xlink:href="#bG"/><use transform="matrix(0.05,0,0,0.05,26.899999999999995,0)" xlink:href="#cd"/><use transform="matrix(0.05,0,0,0.05,36.9,0)" xlink:href="#cc"/></g><path fill="#333" d="M190 0L58-211 59 0H30v-248h39L202-35l-2-213h31V0h-41" id="db"/><g id="W"><use transform="matrix(0.05,0,0,0.05,0,0)" xlink:href="#db"/><use transform="matrix(0.05,0,0,0.05,12.950000000000001,0)" xlink:href="#bK"/></g><g id="X"><use transform="matrix(0.05,0,0,0.05,0,0)" xlink:href="#cc"/><use transform="matrix(0.05,0,0,0.05,10,0)" xlink:href="#cf"/><use transform="matrix(0.05,0,0,0.05,15.949999999999998,0)" xlink:href="#cg"/><use transform="matrix(0.05,0,0,0.05,24.95,0)" xlink:href="#ch"/><use transform="matrix(0.05,0,0,0.05,34.95,0)" xlink:href="#bG"/><use transform="matrix(0.05,0,0,0.05,38.900000000000006,0)" xlink:href="#ci"/><use transform="matrix(0.05,0,0,0.05,47.900000000000006,0)" xlink:href="#bD"/></g><path fill="#fff" d="M33 0v-38h34V0H33" id="dc"/><path fill="#fff" d="M210-169c-67 3-38 105-44 169h-31v-121c0-29-5-50-35-48C34-165 62-65 56 0H25l-1-190h30c1 10-1 24 2 32 10-44 99-50 107 0 11-21 27-35 58-36 85-2 47 119 55 194h-31v-121c0-29-5-49-35-48" id="dd"/><g id="Y"><use transform="matrix(0.05,0,0,0.05,0,0)" xlink:href="#dc"/><use transform="matrix(0.05,0,0,0.05,5,0)" xlink:href="#dd"/><use transform="matrix(0.05,0,0,0.05,19.950000000000003,0)" xlink:href="#cd"/><use transform="matrix(0.05,0,0,0.05,29.950000000000003,0)" xlink:href="#cX"/></g><g id="Z"><use transform="matrix(0.05,0,0,0.05,0,0)" xlink:href="#cY"/><use transform="matrix(0.05,0,0,0.05,12,0)" xlink:href="#bR"/></g><g id="aa"><use transform="matrix(0.05,0,0,0.05,0,0)" xlink:href="#ce"/><use transform="matrix(0.05,0,0,0.05,10,0)" xlink:href="#cW"/></g><path fill="#fff" d="M85 4C-4 8 31-112 24-190h32v120c0 31 7 50 39 49 72-2 45-101 50-169h31l1 190h-30c-1-10 1-25-2-33-11 22-28 36-60 37zM73-211c8-23 27-35 38-54h36v5l-58 49H73" id="de"/><g id="ab"><use transform="matrix(0.05,0,0,0.05,0,0)" xlink:href="#de"/><use transform="matrix(0.05,0,0,0.05,10,0)" xlink:href="#cW"/><use transform="matrix(0.05,0,0,0.05,13.949999999999998,0)" xlink:href="#bF"/><use transform="matrix(0.05,0,0,0.05,18.95,0)" xlink:href="#bG"/><use transform="matrix(0.05,0,0,0.05,22.9,0)" xlink:href="#dd"/><use transform="matrix(0.05,0,0,0.05,37.85,0)" xlink:href="#bD"/></g><g id="ac"><use transform="matrix(0.05,0,0,0.05,0,0)" xlink:href="#cd"/><use transform="matrix(0.05,0,0,0.05,10,0)" xlink:href="#ce"/><use transform="matrix(0.05,0,0,0.05,20,0)" xlink:href="#cW"/></g><g id="ad"><use transform="matrix(0.05,0,0,0.05,0,0)" xlink:href="#cT"/><use transform="matrix(0.05,0,0,0.05,10.950000000000001,0)" xlink:href="#cU"/><use transform="matrix(0.05,0,0,0.05,22.950000000000003,0)" xlink:href="#cW"/></g><path fill="#fff" d="M179-190L93 31C79 59 56 82 12 73V49c39 6 53-20 64-50L1-190h34L92-34l54-156h33" id="df"/><g id="ae"><use transform="matrix(0.05,0,0,0.05,0,0)" xlink:href="#cc"/><use transform="matrix(0.05,0,0,0.05,10,0)" xlink:href="#cf"/><use transform="matrix(0.05,0,0,0.05,15.949999999999998,0)" xlink:href="#cf"/><use transform="matrix(0.05,0,0,0.05,21.9,0)" xlink:href="#cc"/><use transform="matrix(0.05,0,0,0.05,31.899999999999995,0)" xlink:href="#df"/></g><g id="af"><use transform="matrix(0.05,0,0,0.05,0,0)" xlink:href="#cf"/><use transform="matrix(0.05,0,0,0.05,5.95,0)" xlink:href="#cb"/><use transform="matrix(0.05,0,0,0.05,15.949999999999998,0)" xlink:href="#bF"/><use transform="matrix(0.05,0,0,0.05,20.95,0)" xlink:href="#cc"/><use transform="matrix(0.05,0,0,0.05,30.950000000000003,0)" xlink:href="#bI"/></g><g id="ag"><use transform="matrix(0.05,0,0,0.05,0,0)" xlink:href="#dd"/><use transform="matrix(0.05,0,0,0.05,14.950000000000001,0)" xlink:href="#cd"/></g><g id="ah"><use transform="matrix(0.05,0,0,0.05,0,0)" xlink:href="#ce"/><use transform="matrix(0.05,0,0,0.05,10,0)" xlink:href="#bI"/><use transform="matrix(0.05,0,0,0.05,19,0)" xlink:href="#bF"/><use transform="matrix(0.05,0,0,0.05,24,0)" xlink:href="#cc"/></g><g id="ai"><use transform="matrix(0.05,0,0,0.05,0,0)" xlink:href="#ci"/><use transform="matrix(0.05,0,0,0.05,9,0)" xlink:href="#cc"/><use transform="matrix(0.05,0,0,0.05,19,0)" xlink:href="#cg"/><use transform="matrix(0.05,0,0,0.05,28,0)" xlink:href="#bG"/><use transform="matrix(0.05,0,0,0.05,31.950000000000003,0)" xlink:href="#bD"/><use transform="matrix(0.05,0,0,0.05,41.95,0)" xlink:href="#cX"/></g><path fill="#333" d="M143 4C61 4 22-44 18-125c-5-107 100-154 193-111 17 8 29 25 37 43l-32 9c-13-25-37-40-76-40-61 0-88 39-88 99 0 61 29 100 91 101 35 0 62-11 79-27v-45h-74v-28h105v86C228-13 192 4 143 4" id="dg"/><g id="aj"><use transform="matrix(0.05,0,0,0.05,0,0)" xlink:href="#dg"/><use transform="matrix(0.05,0,0,0.05,14,0)" xlink:href="#bT"/><use transform="matrix(0.05,0,0,0.05,24,0)" xlink:href="#bM"/><use transform="matrix(0.05,0,0,0.05,34,0)" xlink:href="#bW"/><use transform="matrix(0.05,0,0,0.05,39.95,0)" xlink:href="#cQ"/><use transform="matrix(0.05,0,0,0.05,49.95,0)" xlink:href="#bM"/><use transform="matrix(0.05,0,0,0.05,59.95,0)" xlink:href="#bW"/></g><g id="ak"><use transform="matrix(0.05,0,0,0.05,0,0)" xlink:href="#bW"/><use transform="matrix(0.05,0,0,0.05,5.95,0)" xlink:href="#bT"/><use transform="matrix(0.05,0,0,0.05,15.949999999999998,0)" xlink:href="#bL"/><use transform="matrix(0.05,0,0,0.05,20.95,0)" xlink:href="#bM"/><use transform="matrix(0.05,0,0,0.05,30.950000000000003,0)" xlink:href="#cR"/></g><path fill="#333" d="M210-169c-67 3-38 105-44 169h-31v-121c0-29-5-50-35-48C34-165 62-65 56 0H25l-1-190h30c1 10-1 24 2 32 10-44 99-50 107 0 11-21 27-35 58-36 85-2 47 119 55 194h-31v-121c0-29-5-49-35-48" id="dh"/><g id="al"><use transform="matrix(0.05,0,0,0.05,0,0)" xlink:href="#dh"/><use transform="matrix(0.05,0,0,0.05,14.950000000000001,0)" xlink:href="#cQ"/></g><path fill="#fff" d="M190 0L58-211 59 0H30v-248h39L202-35l-2-213h31V0h-41" id="di"/><g id="am"><use transform="matrix(0.05,0,0,0.05,0,0)" xlink:href="#di"/><use transform="matrix(0.05,0,0,0.05,12.950000000000001,0)" xlink:href="#bD"/></g><g id="an"><use transform="matrix(0.05,0,0,0.05,0,0)" xlink:href="#ch"/><use transform="matrix(0.05,0,0,0.05,10,0)" xlink:href="#cc"/><use transform="matrix(0.05,0,0,0.05,20,0)" xlink:href="#df"/></g><g id="ao"><use transform="matrix(0.05,0,0,0.05,0,0)" xlink:href="#cc"/><use transform="matrix(0.05,0,0,0.05,10,0)" xlink:href="#cf"/><use transform="matrix(0.05,0,0,0.05,15.949999999999998,0)" xlink:href="#cg"/><use transform="matrix(0.05,0,0,0.05,24.95,0)" xlink:href="#ch"/><use transform="matrix(0.05,0,0,0.05,34.95,0)" xlink:href="#bG"/><use transform="matrix(0.05,0,0,0.05,38.900000000000006,0)" xlink:href="#ci"/><use transform="matrix(0.05,0,0,0.05,47.900000000000006,0)" xlink:href="#bD"/><use transform="matrix(0.05,0,0,0.05,57.900000000000006,0)" xlink:href="#bI"/></g><g id="ap"><use transform="matrix(0.05,0,0,0.05,0,0)" xlink:href="#dd"/><use transform="matrix(0.05,0,0,0.05,14.950000000000001,0)" xlink:href="#cd"/></g><g id="aq"><use transform="matrix(0.05,0,0,0.05,0,0)" xlink:href="#ca"/><use transform="matrix(0.05,0,0,0.05,12.950000000000001,0)" xlink:href="#ce"/><use transform="matrix(0.05,0,0,0.05,22.950000000000003,0)" xlink:href="#cg"/><use transform="matrix(0.05,0,0,0.05,31.950000000000003,0)" xlink:href="#bD"/><use transform="matrix(0.05,0,0,0.05,41.95,0)" xlink:href="#cf"/><use transform="matrix(0.05,0,0,0.05,47.900000000000006,0)" xlink:href="#cf"/><use transform="matrix(0.05,0,0,0.05,53.85,0)" xlink:href="#ce"/><use transform="matrix(0.05,0,0,0.05,63.85,0)" xlink:href="#cf"/></g><g id="ar"><use transform="matrix(0.05,0,0,0.05,0,0)" xlink:href="#cc"/><use transform="matrix(0.05,0,0,0.05,10,0)" xlink:href="#cf"/><use transform="matrix(0.05,0,0,0.05,15.949999999999998,0)" xlink:href="#cf"/><use transform="matrix(0.05,0,0,0.05,21.9,0)" xlink:href="#cc"/><use transform="matrix(0.05,0,0,0.05,31.899999999999995,0)" xlink:href="#df"/></g><path fill="#fff" d="M30 0v-248h33v221h125V0H30" id="dj"/><g id="as"><use transform="matrix(0.05,0,0,0.05,0,0)" xlink:href="#dj"/><use transform="matrix(0.05,0,0,0.05,10,0)" xlink:href="#ce"/><use transform="matrix(0.05,0,0,0.05,20,0)" xlink:href="#ce"/><use transform="matrix(0.05,0,0,0.05,30,0)" xlink:href="#cf"/></g><g id="at"><use transform="matrix(0.05,0,0,0.05,0,0)" xlink:href="#cc"/><use transform="matrix(0.05,0,0,0.05,10,0)" xlink:href="#cf"/><use transform="matrix(0.05,0,0,0.05,15.949999999999998,0)" xlink:href="#cg"/><use transform="matrix(0.05,0,0,0.05,24.95,0)" xlink:href="#ch"/><use transform="matrix(0.05,0,0,0.05,34.95,0)" xlink:href="#bG"/><use transform="matrix(0.05,0,0,0.05,38.900000000000006,0)" xlink:href="#ci"/><use transform="matrix(0.05,0,0,0.05,47.900000000000006,0)" xlink:href="#bD"/></g><path fill="#fff" d="M212-179c-10-28-35-45-73-45-59 0-87 40-87 99 0 60 29 101 89 101 43 0 62-24 78-52l27 14C228-24 195 4 139 4 59 4 22-46 18-125c-6-104 99-153 187-111 19 9 31 26 39 46" id="dk"/><g id="au"><use transform="matrix(0.05,0,0,0.05,0,0)" xlink:href="#cT"/><use transform="matrix(0.05,0,0,0.05,10.950000000000001,0)" xlink:href="#dk"/><use transform="matrix(0.05,0,0,0.05,23.900000000000002,0)" xlink:href="#bD"/><use transform="matrix(0.05,0,0,0.05,33.900000000000006,0)" xlink:href="#bH"/><use transform="matrix(0.05,0,0,0.05,43.900000000000006,0)" xlink:href="#bF"/><use transform="matrix(0.05,0,0,0.05,48.900000000000006,0)" xlink:href="#bG"/><use transform="matrix(0.05,0,0,0.05,52.85,0)" xlink:href="#ce"/><use transform="matrix(0.05,0,0,0.05,62.85,0)" xlink:href="#bH"/><use transform="matrix(0.05,0,0,0.05,72.85000000000001,0)" xlink:href="#ce"/></g><path fill="#fff" d="M143 0L79-87 56-68V0H24v-261h32v163l83-92h37l-77 82L181 0h-38" id="dl"/><g id="av"><use transform="matrix(0.05,0,0,0.05,0,0)" xlink:href="#cW"/><use transform="matrix(0.05,0,0,0.05,3.95,0)" xlink:href="#bG"/><use transform="matrix(0.05,0,0,0.05,7.9,0)" xlink:href="#bH"/><use transform="matrix(0.05,0,0,0.05,17.9,0)" xlink:href="#dl"/><use transform="matrix(0.05,0,0,0.05,26.899999999999995,0)" xlink:href="#bI"/><use transform="matrix(0.05,0,0,0.05,35.9,0)" xlink:href="#cX"/></g><path fill="#333" d="M30 0v-248h187v28H63v79h144v27H63v87h162V0H30" id="dm"/><g id="aw"><use transform="matrix(0.05,0,0,0.05,0,0)" xlink:href="#dm"/><use transform="matrix(0.05,0,0,0.05,12,0)" xlink:href="#cp"/><use transform="matrix(0.05,0,0,0.05,21,0)" xlink:href="#bL"/><use transform="matrix(0.05,0,0,0.05,26,0)" xlink:href="#bW"/><use transform="matrix(0.05,0,0,0.05,31.950000000000003,0)" xlink:href="#bM"/><use transform="matrix(0.05,0,0,0.05,41.95,0)" xlink:href="#bU"/><use transform="matrix(0.05,0,0,0.05,51.95,0)" xlink:href="#bW"/></g><g id="ax"><use transform="matrix(0.05,0,0,0.05,0,0)" xlink:href="#bN"/><use transform="matrix(0.05,0,0,0.05,3.95,0)" xlink:href="#bR"/><use transform="matrix(0.05,0,0,0.05,7.9,0)" xlink:href="#bQ"/><use transform="matrix(0.05,0,0,0.05,17.9,0)" xlink:href="#bX"/><use transform="matrix(0.05,0,0,0.05,26.899999999999995,0)" xlink:href="#cR"/></g><g id="ay"><use transform="matrix(0.05,0,0,0.05,0,0)" xlink:href="#cl"/><use transform="matrix(0.05,0,0,0.05,6,0)" xlink:href="#cm"/><use transform="matrix(0.05,0,0,0.05,16,0)" xlink:href="#bW"/><use transform="matrix(0.05,0,0,0.05,21.95,0)" xlink:href="#bU"/><use transform="matrix(0.05,0,0,0.05,31.950000000000003,0)" xlink:href="#cn"/><use transform="matrix(0.05,0,0,0.05,36.95,0)" xlink:href="#co"/><use transform="matrix(0.05,0,0,0.05,41.95,0)" xlink:href="#bL"/><use transform="matrix(0.05,0,0,0.05,46.95,0)" xlink:href="#bU"/><use transform="matrix(0.05,0,0,0.05,56.95,0)" xlink:href="#cp"/><use transform="matrix(0.05,0,0,0.05,65.95,0)" xlink:href="#bL"/><use transform="matrix(0.05,0,0,0.05,70.95,0)" xlink:href="#co"/><use transform="matrix(0.05,0,0,0.05,75.95,0)" xlink:href="#cn"/><use transform="matrix(0.05,0,0,0.05,80.95,0)" xlink:href="#bR"/><use transform="matrix(0.05,0,0,0.05,84.9,0)" xlink:href="#bN"/><use transform="matrix(0.05,0,0,0.05,88.85000000000001,0)" xlink:href="#bU"/><use transform="matrix(0.05,0,0,0.05,98.85000000000001,0)" xlink:href="#cq"/></g><path fill="#333" d="M179-190L93 31C79 59 56 82 12 73V49c39 6 53-20 64-50L1-190h34L92-34l54-156h33" id="dn"/><g id="az"><use transform="matrix(0.05,0,0,0.05,0,0)" xlink:href="#bM"/><use transform="matrix(0.05,0,0,0.05,10,0)" xlink:href="#bW"/><use transform="matrix(0.05,0,0,0.05,15.949999999999998,0)" xlink:href="#bW"/><use transform="matrix(0.05,0,0,0.05,21.9,0)" xlink:href="#bM"/><use transform="matrix(0.05,0,0,0.05,31.899999999999995,0)" xlink:href="#dn"/></g><g id="aA"><use transform="matrix(0.05,0,0,0.05,0,0)" xlink:href="#cQ"/><use transform="matrix(0.05,0,0,0.05,10,0)" xlink:href="#bU"/></g><path fill="#333" d="M115-194c53 0 69 39 70 98 0 66-23 100-70 100C84 3 66-7 56-30L54 0H23l1-261h32v101c10-23 28-34 59-34zm-8 174c40 0 45-34 45-75 0-40-5-75-45-74-42 0-51 32-51 76 0 43 10 73 51 73" id="do"/><path fill="#333" d="M24-231v-30h32v30H24zM-9 49c24 4 33-6 33-30v-209h32V24c2 40-23 58-65 49V49" id="dp"/><g id="aB"><use transform="matrix(0.05,0,0,0.05,0,0)" xlink:href="#bK"/><use transform="matrix(0.05,0,0,0.05,10,0)" xlink:href="#do"/><use transform="matrix(0.05,0,0,0.05,20,0)" xlink:href="#dp"/><use transform="matrix(0.05,0,0,0.05,23.95,0)" xlink:href="#bU"/><use transform="matrix(0.05,0,0,0.05,33.95,0)" xlink:href="#bL"/><use transform="matrix(0.05,0,0,0.05,38.95,0)" xlink:href="#bK"/><use transform="matrix(0.05,0,0,0.05,48.95,0)" xlink:href="#cR"/></g><g id="aC"><use transform="matrix(0.05,0,0,0.05,0,0)" xlink:href="#cW"/><use transform="matrix(0.05,0,0,0.05,3.95,0)" xlink:href="#cc"/></g><g id="aD"><use transform="matrix(0.05,0,0,0.05,0,0)" xlink:href="#de"/><use transform="matrix(0.05,0,0,0.05,10,0)" xlink:href="#cW"/><use transform="matrix(0.05,0,0,0.05,13.949999999999998,0)" xlink:href="#bF"/><use transform="matrix(0.05,0,0,0.05,18.95,0)" xlink:href="#bG"/><use transform="matrix(0.05,0,0,0.05,22.9,0)" xlink:href="#dd"/><use transform="matrix(0.05,0,0,0.05,37.85,0)" xlink:href="#cc"/></g><g id="aE"><use transform="matrix(0.05,0,0,0.05,0,0)" xlink:href="#dd"/><use transform="matrix(0.05,0,0,0.05,14.950000000000001,0)" xlink:href="#cd"/><use transform="matrix(0.05,0,0,0.05,24.950000000000003,0)" xlink:href="#cX"/></g><g id="aF"><use transform="matrix(0.05,0,0,0.05,0,0)" xlink:href="#cT"/><use transform="matrix(0.05,0,0,0.05,10.950000000000001,0)" xlink:href="#ch"/><use transform="matrix(0.05,0,0,0.05,20.950000000000003,0)" xlink:href="#cc"/><use transform="matrix(0.05,0,0,0.05,30.950000000000003,0)" xlink:href="#df"/></g><g id="aG"><use transform="matrix(0.05,0,0,0.05,0,0)" xlink:href="#cW"/><use transform="matrix(0.05,0,0,0.05,3.95,0)" xlink:href="#bG"/><use transform="matrix(0.05,0,0,0.05,7.9,0)" xlink:href="#bH"/><use transform="matrix(0.05,0,0,0.05,17.9,0)" xlink:href="#dl"/><use transform="matrix(0.05,0,0,0.05,26.899999999999995,0)" xlink:href="#bI"/></g><path fill="#fff" d="M141 0L90-78 38 0H4l68-98-65-92h35l48 74 47-74h35l-64 92 68 98h-35" id="dq"/><g id="aH"><use transform="matrix(0.05,0,0,0.05,0,0)" xlink:href="#ce"/><use transform="matrix(0.05,0,0,0.05,10,0)" xlink:href="#dq"/><use transform="matrix(0.05,0,0,0.05,19,0)" xlink:href="#bF"/><use transform="matrix(0.05,0,0,0.05,24,0)" xlink:href="#cf"/><use transform="matrix(0.05,0,0,0.05,29.950000000000003,0)" xlink:href="#cc"/><use transform="matrix(0.05,0,0,0.05,39.95,0)" xlink:href="#bG"/><use transform="matrix(0.05,0,0,0.05,43.900000000000006,0)" xlink:href="#cd"/><use transform="matrix(0.05,0,0,0.05,53.900000000000006,0)" xlink:href="#bD"/><use transform="matrix(0.05,0,0,0.05,63.900000000000006,0)" xlink:href="#bI"/><use transform="matrix(0.05,0,0,0.05,72.9,0)" xlink:href="#cX"/></g><g id="aI"><use transform="matrix(0.05,0,0,0.05,0,0)" xlink:href="#cT"/><use transform="matrix(0.05,0,0,0.05,10.950000000000001,0)" xlink:href="#ci"/><use transform="matrix(0.05,0,0,0.05,19.950000000000003,0)" xlink:href="#cc"/><use transform="matrix(0.05,0,0,0.05,29.950000000000003,0)" xlink:href="#cW"/><use transform="matrix(0.05,0,0,0.05,33.900000000000006,0)" xlink:href="#bG"/><use transform="matrix(0.05,0,0,0.05,37.85000000000001,0)" xlink:href="#cd"/><use transform="matrix(0.05,0,0,0.05,47.85000000000001,0)" xlink:href="#cc"/><use transform="matrix(0.05,0,0,0.05,57.85,0)" xlink:href="#bF"/><use transform="matrix(0.05,0,0,0.05,62.85,0)" xlink:href="#ce"/></g><g id="aJ"><use transform="matrix(0.05,0,0,0.05,0,0)" xlink:href="#ce"/><use transform="matrix(0.05,0,0,0.05,10,0)" xlink:href="#bI"/></g><g id="aK"><use transform="matrix(0.05,0,0,0.05,0,0)" xlink:href="#bF"/><use transform="matrix(0.05,0,0,0.05,5,0)" xlink:href="#cf"/><use transform="matrix(0.05,0,0,0.05,10.95,0)" xlink:href="#cb"/><use transform="matrix(0.05,0,0,0.05,20.95,0)" xlink:href="#ce"/><use transform="matrix(0.05,0,0,0.05,30.950000000000003,0)" xlink:href="#cX"/></g><g id="aL"><use transform="matrix(0.05,0,0,0.05,0,0)" xlink:href="#bI"/><use transform="matrix(0.05,0,0,0.05,9,0)" xlink:href="#ce"/></g><g id="aM"><use transform="matrix(0.05,0,0,0.05,0,0)" xlink:href="#ce"/><use transform="matrix(0.05,0,0,0.05,10,0)" xlink:href="#bH"/><use transform="matrix(0.05,0,0,0.05,20,0)" xlink:href="#cg"/><use transform="matrix(0.05,0,0,0.05,29,0)" xlink:href="#bD"/><use transform="matrix(0.05,0,0,0.05,39,0)" xlink:href="#bH"/><use transform="matrix(0.05,0,0,0.05,49,0)" xlink:href="#bF"/><use transform="matrix(0.05,0,0,0.05,54,0)" xlink:href="#cf"/><use transform="matrix(0.05,0,0,0.05,59.95,0)" xlink:href="#bD"/></g><g id="aN"><use transform="matrix(0.05,0,0,0.05,0,0)" xlink:href="#cW"/><use transform="matrix(0.05,0,0,0.05,3.95,0)" xlink:href="#bG"/><use transform="matrix(0.05,0,0,0.05,7.9,0)" xlink:href="#bH"/><use transform="matrix(0.05,0,0,0.05,17.9,0)" xlink:href="#dl"/><use transform="matrix(0.05,0,0,0.05,26.899999999999995,0)" xlink:href="#bI"/></g><g id="aO"><use transform="matrix(0.05,0,0,0.05,0,0)" xlink:href="#cd"/><use transform="matrix(0.05,0,0,0.05,10,0)" xlink:href="#ce"/><use transform="matrix(0.05,0,0,0.05,20,0)" xlink:href="#bH"/><use transform="matrix(0.05,0,0,0.05,30,0)" xlink:href="#bF"/><use transform="matrix(0.05,0,0,0.05,35,0)" xlink:href="#cf"/><use transform="matrix(0.05,0,0,0.05,40.95,0)" xlink:href="#bD"/></g><path fill="#fff" d="M63-220v92h138v28H63V0H30v-248h175v28H63" id="dr"/><g id="aP"><use transform="matrix(0.05,0,0,0.05,0,0)" xlink:href="#dr"/><use transform="matrix(0.05,0,0,0.05,10.950000000000001,0)" xlink:href="#bG"/><use transform="matrix(0.05,0,0,0.05,14.9,0)" xlink:href="#bH"/></g><path fill="#fff" d="M197 0v-115H63V0H30v-248h33v105h134v-105h34V0h-34" id="ds"/><g id="aQ"><use transform="matrix(0.05,0,0,0.05,0,0)" xlink:href="#ds"/><use transform="matrix(0.05,0,0,0.05,12.950000000000001,0)" xlink:href="#cc"/><use transform="matrix(0.05,0,0,0.05,22.950000000000003,0)" xlink:href="#cg"/><use transform="matrix(0.05,0,0,0.05,31.950000000000003,0)" xlink:href="#ce"/><use transform="matrix(0.05,0,0,0.05,41.95,0)" xlink:href="#cf"/></g><g id="aR"><use transform="matrix(0.05,0,0,0.05,0,0)" xlink:href="#bE"/><use transform="matrix(0.05,0,0,0.05,10,0)" xlink:href="#ce"/><use transform="matrix(0.05,0,0,0.05,20,0)" xlink:href="#bF"/><use transform="matrix(0.05,0,0,0.05,25,0)" xlink:href="#bG"/><use transform="matrix(0.05,0,0,0.05,28.950000000000003,0)" xlink:href="#cg"/><use transform="matrix(0.05,0,0,0.05,37.95,0)" xlink:href="#bG"/><use transform="matrix(0.05,0,0,0.05,41.900000000000006,0)" xlink:href="#bD"/><use transform="matrix(0.05,0,0,0.05,51.900000000000006,0)" xlink:href="#bH"/></g><g id="aS"><use transform="matrix(0.05,0,0,0.05,0,0)" xlink:href="#ch"/><use transform="matrix(0.05,0,0,0.05,10,0)" xlink:href="#bF"/><use transform="matrix(0.05,0,0,0.05,15,0)" xlink:href="#bF"/><use transform="matrix(0.05,0,0,0.05,20,0)" xlink:href="#bE"/></g><g id="aT"><use transform="matrix(0.05,0,0,0.05,0,0)" xlink:href="#cW"/><use transform="matrix(0.05,0,0,0.05,3.95,0)" xlink:href="#bD"/><use transform="matrix(0.05,0,0,0.05,13.949999999999998,0)" xlink:href="#bI"/></g><g id="aU"><use transform="matrix(0.05,0,0,0.05,0,0)" xlink:href="#cd"/><use transform="matrix(0.05,0,0,0.05,10,0)" xlink:href="#cc"/><use transform="matrix(0.05,0,0,0.05,20,0)" xlink:href="#bF"/><use transform="matrix(0.05,0,0,0.05,25,0)" xlink:href="#bD"/><use transform="matrix(0.05,0,0,0.05,35,0)" xlink:href="#bI"/></g><g id="aV"><use transform="matrix(0.05,0,0,0.05,0,0)" xlink:href="#ce"/><use transform="matrix(0.05,0,0,0.05,10,0)" xlink:href="#dq"/><use transform="matrix(0.05,0,0,0.05,19,0)" xlink:href="#bF"/><use transform="matrix(0.05,0,0,0.05,24,0)" xlink:href="#cf"/><use transform="matrix(0.05,0,0,0.05,29.950000000000003,0)" xlink:href="#cc"/><use transform="matrix(0.05,0,0,0.05,39.95,0)" xlink:href="#bG"/><use transform="matrix(0.05,0,0,0.05,43.900000000000006,0)" xlink:href="#cd"/><use transform="matrix(0.05,0,0,0.05,53.900000000000006,0)" xlink:href="#bD"/><use transform="matrix(0.05,0,0,0.05,63.900000000000006,0)" xlink:href="#bI"/></g><use transform="matrix(0.05,0,0,0.05,0,0)" xlink:href="#df" id="aW"/><path fill="#fff" d="M177-190C167-65 218 103 67 71c-23-6-38-20-44-43l32-5c15 47 100 32 89-28v-30C133-14 115 1 83 1 29 1 15-40 15-95c0-56 16-97 71-98 29-1 48 16 59 35 1-10 0-23 2-32h30zM94-22c36 0 50-32 50-73 0-42-14-75-50-75-39 0-46 34-46 75s6 73 46 73" id="dt"/><g id="aX"><use transform="matrix(0.05,0,0,0.05,0,0)" xlink:href="#cc"/><use transform="matrix(0.05,0,0,0.05,10,0)" xlink:href="#dt"/><use transform="matrix(0.05,0,0,0.05,20,0)" xlink:href="#cf"/><use transform="matrix(0.05,0,0,0.05,25.950000000000003,0)" xlink:href="#ce"/><use transform="matrix(0.05,0,0,0.05,35.95,0)" xlink:href="#dt"/><use transform="matrix(0.05,0,0,0.05,45.95,0)" xlink:href="#cc"/><use transform="matrix(0.05,0,0,0.05,55.95,0)" xlink:href="#cf"/></g><g id="aY"><use transform="matrix(0.05,0,0,0.05,0,0)" xlink:href="#bI"/><use transform="matrix(0.05,0,0,0.05,9,0)" xlink:href="#cb"/></g><path fill="#fff" d="M33-154v-36h34v36H33zM33 0v-36h34V0H33" id="du"/><g id="aZ"><use transform="matrix(0.05,0,0,0.05,0,0)" xlink:href="#ce"/><use transform="matrix(0.05,0,0,0.05,10,0)" xlink:href="#bI"/><use transform="matrix(0.05,0,0,0.05,19,0)" xlink:href="#bF"/><use transform="matrix(0.05,0,0,0.05,24,0)" xlink:href="#cc"/><use transform="matrix(0.05,0,0,0.05,34,0)" xlink:href="#cd"/><use transform="matrix(0.05,0,0,0.05,44,0)" xlink:href="#bD"/><use transform="matrix(0.05,0,0,0.05,54,0)" xlink:href="#du"/></g><path fill="#fff" d="M26 75v-336h71v23H56V52h41v23H26" id="dv"/><path fill="#fff" d="M39-94c74 12-11 154 75 146v23c-44 4-70-10-70-52C44-23 55-84 6-82v-22c81 4-7-162 84-157h24v23c-82-15-2 131-75 144" id="dw"/><path fill="#fff" d="M101-234c-31-9-42 10-38 44h38v23H63V0H32v-167H5v-23h27c-7-52 17-82 69-68v24" id="dx"/><path fill="#fff" d="M68-38c1 34 0 65-14 84H32c9-13 17-26 17-46H33v-38h35" id="dy"/><g id="ba"><use transform="matrix(0.05,0,0,0.05,0,0)" xlink:href="#dv"/><use transform="matrix(0.05,0,0,0.05,5,0)" xlink:href="#dw"/><use transform="matrix(0.05,0,0,0.05,11,0)" xlink:href="#ch"/><use transform="matrix(0.05,0,0,0.05,21,0)" xlink:href="#cf"/><use transform="matrix(0.05,0,0,0.05,26.950000000000003,0)" xlink:href="#ce"/><use transform="matrix(0.05,0,0,0.05,36.95,0)" xlink:href="#dx"/><use transform="matrix(0.05,0,0,0.05,41.95,0)" xlink:href="#dy"/></g><g id="bb"><use transform="matrix(0.05,0,0,0.05,0,0)" xlink:href="#bF"/><use transform="matrix(0.05,0,0,0.05,5,0)" xlink:href="#ce"/><use transform="matrix(0.05,0,0,0.05,15,0)" xlink:href="#dq"/><use transform="matrix(0.05,0,0,0.05,24,0)" xlink:href="#bF"/><use transform="matrix(0.05,0,0,0.05,29,0)" xlink:href="#dy"/></g><g id="bc"><use transform="matrix(0.05,0,0,0.05,0,0)" xlink:href="#dx"/><use transform="matrix(0.05,0,0,0.05,5,0)" xlink:href="#bG"/><use transform="matrix(0.05,0,0,0.05,8.95,0)" xlink:href="#cW"/><use transform="matrix(0.05,0,0,0.05,12.899999999999999,0)" xlink:href="#ce"/><use transform="matrix(0.05,0,0,0.05,22.9,0)" xlink:href="#dy"/></g><g id="bd"><use transform="matrix(0.05,0,0,0.05,0,0)" xlink:href="#bI"/><use transform="matrix(0.05,0,0,0.05,9,0)" xlink:href="#bF"/><use transform="matrix(0.05,0,0,0.05,14,0)" xlink:href="#cc"/><use transform="matrix(0.05,0,0,0.05,24,0)" xlink:href="#bF"/><use transform="matrix(0.05,0,0,0.05,29,0)" xlink:href="#cb"/><use transform="matrix(0.05,0,0,0.05,39,0)" xlink:href="#bI"/><use transform="matrix(0.05,0,0,0.05,48,0)" xlink:href="#dy"/></g><path fill="#fff" d="M76-40C78 24 84 88 6 75V52C86 64 9-79 80-94c-40-6-34-59-34-106 1-29-11-41-40-38v-23c44-4 70 10 70 52 0 47-12 108 38 105v22c-26 1-39 14-38 42" id="dz"/><g id="be"><use transform="matrix(0.05,0,0,0.05,0,0)" xlink:href="#bD"/><use transform="matrix(0.05,0,0,0.05,10,0)" xlink:href="#dl"/><use transform="matrix(0.05,0,0,0.05,19,0)" xlink:href="#dz"/><use transform="matrix(0.05,0,0,0.05,25,0)" xlink:href="#dy"/></g><path fill="#fff" d="M3 75V52h41v-290H3v-23h71V75H3" id="dA"/><g id="bf"><use transform="matrix(0.05,0,0,0.05,0,0)" xlink:href="#dc"/><use transform="matrix(0.05,0,0,0.05,5,0)" xlink:href="#dc"/><use transform="matrix(0.05,0,0,0.05,10,0)" xlink:href="#dc"/><use transform="matrix(0.05,0,0,0.05,15,0)" xlink:href="#dA"/></g><g id="bg"><use transform="matrix(0.05,0,0,0.05,0,0)" xlink:href="#ca"/><use transform="matrix(0.05,0,0,0.05,12.950000000000001,0)" xlink:href="#ce"/><use transform="matrix(0.05,0,0,0.05,22.950000000000003,0)" xlink:href="#bF"/><use transform="matrix(0.05,0,0,0.05,27.950000000000003,0)" xlink:href="#bD"/><use transform="matrix(0.05,0,0,0.05,37.95,0)" xlink:href="#cf"/><use transform="matrix(0.05,0,0,0.05,43.900000000000006,0)" xlink:href="#bH"/><use transform="matrix(0.05,0,0,0.05,53.900000000000006,0)" xlink:href="#cc"/><use transform="matrix(0.05,0,0,0.05,63.900000000000006,0)" xlink:href="#cf"/></g><g id="bh"><use transform="matrix(0.05,0,0,0.05,0,0)" xlink:href="#ce"/><use transform="matrix(0.05,0,0,0.05,10,0)" xlink:href="#dq"/><use transform="matrix(0.05,0,0,0.05,19,0)" xlink:href="#bF"/><use transform="matrix(0.05,0,0,0.05,24,0)" xlink:href="#cf"/><use transform="matrix(0.05,0,0,0.05,29.950000000000003,0)" xlink:href="#cc"/><use transform="matrix(0.05,0,0,0.05,39.95,0)" xlink:href="#bG"/><use transform="matrix(0.05,0,0,0.05,43.900000000000006,0)" xlink:href="#cd"/><use transform="matrix(0.05,0,0,0.05,53.900000000000006,0)" xlink:href="#bD"/><use transform="matrix(0.05,0,0,0.05,63.900000000000006,0)" xlink:href="#bI"/></g><g id="bi"><use transform="matrix(0.05,0,0,0.05,0,0)" xlink:href="#ca"/><use transform="matrix(0.05,0,0,0.05,12.950000000000001,0)" xlink:href="#ce"/><use transform="matrix(0.05,0,0,0.05,22.950000000000003,0)" xlink:href="#cg"/><use transform="matrix(0.05,0,0,0.05,31.950000000000003,0)" xlink:href="#bD"/><use transform="matrix(0.05,0,0,0.05,41.95,0)" xlink:href="#cf"/><use transform="matrix(0.05,0,0,0.05,47.900000000000006,0)" xlink:href="#cf"/><use transform="matrix(0.05,0,0,0.05,53.85,0)" xlink:href="#ce"/><use transform="matrix(0.05,0,0,0.05,63.85,0)" xlink:href="#cf"/></g><g id="bj"><use transform="matrix(0.05,0,0,0.05,0,0)" xlink:href="#cd"/><use transform="matrix(0.05,0,0,0.05,10,0)" xlink:href="#bG"/><use transform="matrix(0.05,0,0,0.05,13.949999999999998,0)" xlink:href="#cf"/><use transform="matrix(0.05,0,0,0.05,19.9,0)" xlink:href="#ce"/><use transform="matrix(0.05,0,0,0.05,29.899999999999995,0)" xlink:href="#cg"/><use transform="matrix(0.05,0,0,0.05,38.9,0)" xlink:href="#bF"/><use transform="matrix(0.05,0,0,0.05,43.9,0)" xlink:href="#bD"/><use transform="matrix(0.05,0,0,0.05,53.900000000000006,0)" xlink:href="#cf"/><use transform="matrix(0.05,0,0,0.05,59.85,0)" xlink:href="#bG"/><use transform="matrix(0.05,0,0,0.05,63.800000000000004,0)" xlink:href="#bD"/></g></defs></g></svg>